<?xml version="1.0" encoding="UTF-8" standalone="no"?>
<!DOCTYPE svg PUBLIC "-//W3C//DTD SVG 1.1//EN" "http://www.w3.org/Graphics/SVG/1.1/DTD/svg11.dtd">
<svg width="100%" height="100%" viewBox="0 0 310 95" version="1.1" xmlns="http://www.w3.org/2000/svg" xmlns:xlink="http://www.w3.org/1999/xlink" xml:space="preserve" xmlns:serif="http://www.serif.com/" style="fill-rule:evenodd;clip-rule:evenodd;stroke-linejoin:round;stroke-miterlimit:2;">
    <g transform="matrix(0.612978,0,0,0.612978,-136.691,-264.517)">
        <path d="M702.294,496.394C700.087,496.394 698.052,496.954 696.19,498.075C694.327,499.196 692.845,500.687 691.741,502.55C690.637,504.412 690.086,506.412 690.086,508.55C690.086,510.689 690.637,512.697 691.741,514.577C692.845,516.456 694.327,517.965 696.19,519.103C698.052,520.241 700.087,520.81 702.294,520.81C704.501,520.81 706.544,520.241 708.424,519.103C710.303,517.965 711.786,516.456 712.872,514.577C713.959,512.697 714.502,510.689 714.502,508.55C714.502,506.412 713.959,504.412 712.872,502.55C711.786,500.687 710.303,499.196 708.424,498.075C706.544,496.954 704.501,496.394 702.294,496.394ZM664.157,496.756L664.157,527.483L655.932,527.483L655.932,496.756L642.038,496.756C641.778,496.259 641.502,495.768 641.208,495.283C639.935,493.182 638.418,491.308 636.675,489.669L683.503,489.669C681.767,491.311 680.255,493.185 678.985,495.283C678.691,495.768 678.415,496.259 678.155,496.756L664.157,496.756ZM617.796,496.394C615.589,496.394 613.554,496.954 611.692,498.075C609.829,499.196 608.347,500.687 607.243,502.55C606.139,504.412 605.588,506.412 605.588,508.55C605.588,510.689 606.139,512.697 607.243,514.577C608.347,516.456 609.829,517.965 611.692,519.103C613.554,520.241 615.589,520.81 617.796,520.81C620.003,520.81 622.046,520.241 623.926,519.103C625.805,517.965 627.288,516.456 628.374,514.577C629.461,512.697 630.004,510.689 630.004,508.55C630.004,506.412 629.461,504.412 628.374,502.55C627.288,500.687 625.805,499.196 623.926,498.075C622.046,496.954 620.003,496.394 617.796,496.394ZM617.796,528.208C614.106,528.208 610.709,527.328 607.605,525.569C604.502,523.81 602.036,521.422 600.208,518.405C598.38,515.387 597.466,512.103 597.466,508.55C597.466,505.033 598.38,501.765 600.208,498.748C602.036,495.73 604.502,493.342 607.605,491.583C610.709,489.824 614.106,488.945 617.796,488.945C621.486,488.945 624.9,489.824 628.038,491.583C631.176,493.342 633.659,495.73 635.487,498.748C637.315,501.765 638.229,505.033 638.229,508.55C638.229,512.103 637.315,515.387 635.487,518.405C633.659,521.422 631.176,523.81 628.038,525.569C624.9,527.328 621.486,528.208 617.796,528.208ZM702.294,528.208C698.604,528.208 695.207,527.328 692.103,525.569C689,523.81 686.534,521.422 684.706,518.405C682.878,515.387 681.964,512.103 681.964,508.55C681.964,505.033 682.878,501.765 684.706,498.748C686.534,495.73 689,493.342 692.103,491.583C695.207,489.824 698.604,488.945 702.294,488.945C705.984,488.945 709.398,489.824 712.536,491.583C715.674,493.342 718.157,495.73 719.985,498.748C721.813,501.765 722.727,505.033 722.727,508.55C722.727,512.103 721.813,515.387 719.985,518.405C718.157,521.422 715.674,523.81 712.536,525.569C709.398,527.328 705.984,528.208 702.294,528.208" style="fill:rgb(112,111,110);"/>
    </g>
    <g transform="matrix(0.612978,0,0,0.612978,-136.691,-264.676)">
        <path d="M366.422,505.085L354.68,527.742L345.679,527.742L366.422,488.738L387.166,527.742L378.217,527.742L366.422,505.085ZM404.3,528.673L385.212,489.98L394.213,489.98L404.3,510.878L414.439,489.98L423.492,489.98L404.3,528.673ZM432.402,527.742L432.402,489.928L449.214,489.928C451.903,489.928 454.283,490.48 456.352,491.583C458.421,492.687 460.025,494.239 461.163,496.239C462.301,498.239 462.87,500.515 462.87,503.067C462.87,505.792 462.181,508.223 460.801,510.361C459.421,512.499 457.542,514.068 455.163,515.069C457.611,518.172 460.87,522.397 464.939,527.742L455.163,527.742C452.955,524.983 449.938,521.052 446.11,515.948L440.523,515.948L440.523,527.742L432.402,527.742ZM449.214,508.861C450.628,508.861 451.903,508.352 453.042,507.335C454.179,506.318 454.749,504.895 454.749,503.067C454.749,501.584 454.352,500.205 453.559,498.929C452.765,497.653 451.317,497.015 449.214,497.015L440.523,497.015L440.523,508.861L449.214,508.861ZM491.695,528.415C488.281,528.415 485.298,527.759 482.746,526.449C480.194,525.138 478.22,523.276 476.823,520.862C475.426,518.448 474.728,515.637 474.728,512.43L474.728,489.98L482.901,489.98L482.901,512.43C482.901,514.637 483.376,516.405 484.324,517.733C485.272,519.06 486.41,520 487.738,520.552C489.066,521.103 490.385,521.379 491.695,521.379C492.971,521.379 494.273,521.103 495.601,520.552C496.928,520 498.058,519.06 498.989,517.733C499.92,516.405 500.386,514.637 500.386,512.43L500.386,489.98L508.559,489.98L508.559,512.43C508.559,515.637 507.869,518.448 506.49,520.862C505.11,523.276 503.145,525.138 500.593,526.449C498.041,527.759 495.075,528.415 491.695,528.415ZM537.126,489.928C540.229,489.928 542.928,490.532 545.221,491.739C547.515,492.946 549.282,494.575 550.523,496.627C551.765,498.679 552.386,500.964 552.386,503.481C552.386,505.998 551.808,508.257 550.653,510.258C549.497,512.258 547.765,513.836 545.454,514.991C543.144,516.146 540.35,516.724 537.074,516.724L529.935,516.724L529.935,527.742L521.762,527.742L521.762,489.928L537.126,489.928ZM538.264,509.637C540.195,509.637 541.661,509.034 542.661,507.826C543.661,506.619 544.161,505.171 544.161,503.481C544.161,502.378 543.902,501.334 543.385,500.352C542.867,499.369 542.1,498.567 541.083,497.946C540.065,497.325 538.85,497.015 537.436,497.015L529.935,497.015L529.935,509.637L538.264,509.637ZM572.831,505.085L561.088,527.742L552.088,527.742L572.831,488.738L593.574,527.742L584.625,527.742L572.831,505.085Z" style="fill:rgb(27,66,126);"/>
    </g>
    <g transform="matrix(0.719839,0,0,0.719839,-180.81,-265.268)">
        <path d="M403.884,458.999C403.648,459.117 403.427,459.259 403.218,459.426C403.012,459.589 402.868,459.749 402.786,459.904C402.973,459.943 403.109,460.025 403.191,460.146C403.276,460.266 403.315,460.396 403.315,460.533C403.315,460.714 403.252,460.868 403.121,460.989C402.991,461.11 402.841,461.171 402.668,461.171C402.486,461.171 402.335,461.104 402.214,460.974C402.093,460.844 402.033,460.696 402.033,460.523C402.033,460.339 402.081,460.158 402.178,459.973C402.275,459.792 402.405,459.619 402.562,459.459C402.722,459.302 402.904,459.156 403.103,459.029C403.303,458.903 403.508,458.8 403.714,458.716L403.884,458.999ZM635.235,471.401C635.268,471.468 635.322,471.571 635.391,471.71C635.464,471.849 635.516,472.012 635.552,472.199C635.918,471.97 636.278,471.722 636.629,471.461C636.98,471.199 637.321,470.908 637.651,470.591C637.983,470.276 638.304,469.928 638.612,469.55C638.924,469.172 639.221,468.755 639.505,468.293L639.822,468.54C639.519,469.037 639.208,469.484 638.881,469.883C638.558,470.282 638.219,470.645 637.868,470.978C637.517,471.307 637.152,471.613 636.771,471.894C636.39,472.175 635.991,472.441 635.579,472.695C635.555,473.246 635.434,473.8 635.216,474.359C634.996,474.915 634.717,475.454 634.379,475.974C634.037,476.494 633.653,476.981 633.226,477.431C632.797,477.885 632.365,478.278 631.923,478.614C631.485,478.952 631.055,479.218 630.638,479.412C630.223,479.606 629.854,479.705 629.537,479.705C629.307,479.705 629.114,479.663 628.957,479.584C628.799,479.506 628.675,479.403 628.579,479.279C628.485,479.155 628.418,479.019 628.376,478.871C628.333,478.723 628.312,478.584 628.312,478.447C628.312,478.103 628.421,477.736 628.633,477.344C628.845,476.95 629.159,476.542 629.577,476.122C629.994,475.699 630.508,475.269 631.122,474.83C631.735,474.395 632.444,473.96 633.239,473.53C633.517,473.376 633.792,473.225 634.064,473.077C634.336,472.928 634.605,472.777 634.878,472.617C634.878,472.587 634.881,472.556 634.884,472.523C634.887,472.49 634.887,472.46 634.887,472.43C634.887,472.254 634.875,472.1 634.848,471.973C634.82,471.846 634.784,471.74 634.735,471.652C634.412,471.782 634.137,471.846 633.913,471.846C633.696,471.846 633.511,471.794 633.363,471.691C633.217,471.589 633.142,471.446 633.142,471.271C633.142,471.081 633.223,470.936 633.39,470.833C633.557,470.727 633.753,470.675 633.983,470.675C634.291,470.675 634.578,470.775 634.844,470.978C635.114,470.766 635.377,470.491 635.631,470.158C635.884,469.826 636.111,469.463 636.305,469.076C636.499,468.691 636.656,468.295 636.774,467.89C636.892,467.485 636.952,467.107 636.952,466.75C636.952,466.556 636.928,466.39 636.877,466.255C636.825,466.118 636.758,466.009 636.677,465.921C636.595,465.837 636.499,465.773 636.393,465.734C636.287,465.692 636.175,465.671 636.057,465.671C635.815,465.671 635.582,465.731 635.361,465.849C635.141,465.967 634.933,466.118 634.735,466.303C634.542,466.49 634.36,466.696 634.191,466.919C634.025,467.143 633.87,467.364 633.732,467.576C633.593,467.788 633.468,467.981 633.363,468.156C633.256,468.329 633.169,468.459 633.097,468.54L632.77,468.293C632.839,468.199 632.93,468.059 633.039,467.872C633.148,467.688 633.278,467.479 633.426,467.246C633.574,467.016 633.738,466.78 633.922,466.539C634.103,466.296 634.306,466.075 634.524,465.879C634.741,465.68 634.981,465.52 635.237,465.392C635.495,465.265 635.767,465.202 636.057,465.202C636.335,465.202 636.584,465.247 636.804,465.338C637.028,465.428 637.215,465.556 637.373,465.719C637.53,465.882 637.651,466.079 637.736,466.309C637.82,466.539 637.866,466.796 637.866,467.08C637.866,467.494 637.793,467.908 637.651,468.329C637.509,468.749 637.318,469.148 637.079,469.529C636.84,469.91 636.562,470.261 636.242,470.585C635.924,470.905 635.588,471.177 635.235,471.401ZM632.982,476.24C633.166,476.01 633.347,475.768 633.532,475.514C633.713,475.26 633.886,475 634.046,474.74C634.206,474.477 634.349,474.214 634.476,473.951C634.602,473.688 634.702,473.43 634.772,473.183L633.468,473.92C632.712,474.338 632.072,474.734 631.542,475.103C631.013,475.472 630.577,475.814 630.233,476.128C629.885,476.445 629.616,476.73 629.422,476.984C629.225,477.238 629.08,477.461 628.984,477.658C628.884,477.852 628.827,478.015 628.805,478.142C628.784,478.269 628.775,478.36 628.775,478.42C628.775,478.502 628.784,478.587 628.802,478.671C628.818,478.759 628.854,478.835 628.902,478.898C628.953,478.965 629.02,479.016 629.102,479.058C629.183,479.097 629.295,479.119 629.431,479.119C629.577,479.119 629.758,479.08 629.976,478.995C630.191,478.913 630.441,478.765 630.732,478.547C631.022,478.332 631.352,478.039 631.724,477.667C632.095,477.295 632.516,476.82 632.982,476.24ZM634.479,471.244C634.397,471.19 634.309,471.15 634.215,471.123C634.119,471.096 634.04,471.084 633.974,471.084C633.719,471.084 633.593,471.141 633.593,471.253C633.593,471.365 633.704,471.42 633.922,471.42C633.98,471.42 634.067,471.407 634.179,471.38C634.291,471.353 634.391,471.307 634.479,471.244ZM650.966,459.955C650.899,460.052 650.793,460.206 650.645,460.426C650.497,460.644 650.328,460.904 650.131,461.204C649.937,461.506 649.726,461.839 649.499,462.205C649.272,462.573 649.042,462.952 648.816,463.339C648.589,463.729 648.368,464.125 648.15,464.525C647.936,464.921 647.745,465.305 647.579,465.671C647.322,466.239 647.107,466.744 646.938,467.189C646.768,467.636 646.635,468.032 646.538,468.381C646.442,468.731 646.375,469.033 646.336,469.29C646.297,469.548 646.278,469.768 646.278,469.95C646.278,470.285 646.329,470.521 646.432,470.651C646.535,470.781 646.678,470.845 646.853,470.845C647.038,470.845 647.213,470.796 647.382,470.702C647.549,470.609 647.712,470.488 647.869,470.34C648.023,470.192 648.171,470.022 648.311,469.835C648.45,469.644 648.579,469.457 648.701,469.266C648.822,469.079 648.934,468.897 649.033,468.727C649.133,468.555 649.221,468.41 649.299,468.293L649.617,468.54C649.554,468.646 649.472,468.789 649.375,468.961C649.278,469.136 649.166,469.326 649.042,469.532C648.919,469.741 648.777,469.95 648.616,470.158C648.459,470.367 648.281,470.557 648.09,470.73C647.896,470.902 647.685,471.042 647.451,471.15C647.219,471.259 646.965,471.314 646.693,471.314C646.565,471.314 646.426,471.295 646.281,471.262C646.136,471.226 646.003,471.162 645.879,471.075C645.755,470.987 645.646,470.863 645.553,470.708C645.456,470.551 645.395,470.352 645.365,470.11C644.924,470.588 644.491,470.951 644.071,471.196C643.653,471.441 643.257,471.561 642.885,471.561C642.695,471.561 642.486,471.532 642.259,471.465C642.032,471.401 641.818,471.286 641.618,471.129C641.416,470.969 641.249,470.757 641.113,470.494C640.977,470.231 640.907,469.904 640.907,469.514C640.907,469.079 640.977,468.661 641.113,468.265C641.249,467.872 641.431,467.503 641.66,467.164C641.893,466.823 642.157,466.517 642.456,466.242C642.752,465.967 643.064,465.734 643.391,465.543C643.714,465.35 644.041,465.202 644.367,465.096C644.697,464.987 645.005,464.936 645.296,464.936C645.68,464.936 645.979,464.981 646.197,465.078C646.417,465.172 646.581,465.265 646.693,465.359C646.777,465.196 646.889,464.984 647.031,464.727C647.173,464.47 647.337,464.183 647.527,463.868C647.715,463.551 647.927,463.215 648.156,462.858C648.386,462.501 648.631,462.141 648.891,461.776C649.151,461.413 649.423,461.056 649.711,460.699C649.998,460.345 650.288,460.016 650.585,459.707L650.966,459.955ZM645.356,469.445C645.387,469.009 645.489,468.492 645.661,467.899C645.837,467.306 646.103,466.62 646.462,465.849C646.381,465.725 646.263,465.628 646.115,465.559C645.964,465.492 645.795,465.459 645.604,465.459C645.314,465.459 645.02,465.516 644.724,465.634C644.424,465.752 644.137,465.912 643.862,466.115C643.59,466.315 643.33,466.554 643.088,466.825C642.846,467.101 642.634,467.394 642.456,467.709C642.274,468.021 642.132,468.347 642.03,468.688C641.927,469.028 641.875,469.363 641.875,469.693C641.875,470.137 641.966,470.482 642.154,470.73C642.341,470.978 642.589,471.102 642.903,471.102C643.049,471.102 643.212,471.072 643.391,471.014C643.565,470.954 643.759,470.857 643.971,470.724C644.18,470.591 644.4,470.422 644.631,470.213C644.86,470.001 645.102,469.747 645.356,469.445ZM655.009,469.666C654.737,469.986 654.471,470.279 654.205,470.548C653.939,470.817 653.672,471.047 653.409,471.238C653.149,471.431 652.886,471.583 652.626,471.691C652.365,471.801 652.102,471.855 651.836,471.855C651.613,471.855 651.41,471.816 651.232,471.734C651.05,471.655 650.893,471.543 650.76,471.398C650.63,471.253 650.527,471.078 650.454,470.866C650.385,470.657 650.348,470.422 650.348,470.161C650.348,469.756 650.439,469.336 650.621,468.903C650.799,468.474 651.026,468.053 651.301,467.645C651.576,467.24 651.882,466.853 652.214,466.487C652.547,466.118 652.864,465.794 653.167,465.51L653.548,465.776C653.336,466.091 653.098,466.445 652.834,466.841C652.571,467.237 652.323,467.645 652.09,468.066C651.858,468.489 651.661,468.913 651.501,469.332C651.34,469.756 651.262,470.146 651.262,470.509C651.262,470.751 651.307,470.957 651.398,471.129C651.492,471.298 651.667,471.386 651.927,471.386C652.211,471.386 652.523,471.274 652.861,471.047C653.201,470.823 653.548,470.53 653.908,470.17C654.265,469.811 654.622,469.406 654.978,468.952C655.335,468.501 655.674,468.044 655.992,467.585C656.312,467.122 656.603,466.683 656.865,466.263C657.129,465.846 657.343,465.486 657.507,465.192L658.154,465.51C657.812,466.185 657.483,466.811 657.168,467.394C656.85,467.975 656.569,468.498 656.324,468.961C656.079,469.426 655.886,469.829 655.741,470.17C655.595,470.515 655.523,470.784 655.523,470.987C655.523,471.069 655.541,471.138 655.577,471.19C655.61,471.244 655.668,471.271 655.744,471.271C655.965,471.277 656.203,471.181 656.466,470.987C656.73,470.79 656.996,470.546 657.265,470.252C657.534,469.956 657.797,469.632 658.054,469.281C658.311,468.931 658.541,468.601 658.75,468.293L659.067,468.54C659.031,468.601 658.958,468.722 658.846,468.903C658.735,469.088 658.595,469.296 658.429,469.532C658.263,469.771 658.076,470.019 657.863,470.276C657.649,470.537 657.425,470.775 657.19,470.99C656.953,471.208 656.708,471.383 656.454,471.522C656.2,471.661 655.949,471.731 655.701,471.731C655.547,471.731 655.411,471.704 655.29,471.652C655.166,471.598 655.066,471.528 654.982,471.437C654.9,471.35 654.836,471.247 654.788,471.129C654.739,471.011 654.719,470.887 654.719,470.757C654.719,470.603 654.742,470.433 654.791,470.252C654.842,470.067 654.915,469.874 655.009,469.666ZM665.923,468.54C665.832,468.67 665.729,468.846 665.608,469.07C665.487,469.29 665.345,469.529 665.185,469.786C665.028,470.044 664.852,470.304 664.659,470.569C664.468,470.836 664.256,471.075 664.03,471.286C663.803,471.501 663.555,471.674 663.291,471.809C663.026,471.945 662.742,472.015 662.439,472.015C662.276,472.015 662.118,471.988 661.97,471.939C661.822,471.888 661.692,471.809 661.58,471.704C661.468,471.598 661.38,471.465 661.314,471.31C661.251,471.153 661.217,470.969 661.217,470.757C661.217,470.467 661.275,470.164 661.389,469.847C661.505,469.532 661.641,469.227 661.792,468.931C661.946,468.634 662.1,468.365 662.255,468.12C662.409,467.875 662.521,467.679 662.59,467.53C662.663,467.382 662.696,467.255 662.696,467.149C662.696,467.073 662.672,467.004 662.62,466.947C662.572,466.886 662.508,466.829 662.436,466.774C662.36,466.717 662.285,466.659 662.206,466.596C662.124,466.535 662.058,466.46 662.006,466.369C661.858,466.608 661.707,466.847 661.553,467.089C661.417,467.294 661.272,467.527 661.111,467.785C660.951,468.041 660.797,468.293 660.649,468.54L660.331,468.293L662.227,465.326L662.485,465.459C662.472,465.492 662.454,465.55 662.427,465.625C662.4,465.704 662.387,465.785 662.387,465.873C662.387,465.94 662.397,466.003 662.418,466.064C662.439,466.127 662.481,466.185 662.545,466.239C662.784,466.451 662.968,466.614 663.104,466.729C663.241,466.844 663.34,466.935 663.401,467.004C663.464,467.071 663.5,467.128 663.515,467.174C663.531,467.215 663.54,467.273 663.54,467.346C663.54,467.415 663.528,467.5 663.504,467.603C663.479,467.703 663.44,467.824 663.382,467.966C663.328,468.108 663.25,468.274 663.152,468.465C663.056,468.658 662.932,468.882 662.787,469.133C662.696,469.287 662.608,469.445 662.524,469.599C662.439,469.756 662.36,469.913 662.294,470.073C662.227,470.234 662.17,470.395 662.13,470.551C662.088,470.711 662.067,470.866 662.067,471.014C662.067,471.126 662.085,471.217 662.115,471.283C662.149,471.35 662.191,471.404 662.246,471.437C662.297,471.474 662.354,471.498 662.418,471.51C662.478,471.522 662.542,471.528 662.599,471.528C662.793,471.528 662.987,471.471 663.18,471.353C663.37,471.238 663.56,471.09 663.745,470.905C663.933,470.724 664.111,470.515 664.287,470.282C664.462,470.049 664.628,469.811 664.789,469.569C664.946,469.326 665.094,469.094 665.23,468.873C665.366,468.652 665.487,468.459 665.593,468.293L665.923,468.54ZM670.773,460.974C671.009,460.856 671.23,460.714 671.435,460.551C671.644,460.384 671.786,460.224 671.871,460.07C671.68,460.03 671.544,459.949 671.463,459.828C671.381,459.707 671.339,459.577 671.339,459.441C671.339,459.259 671.402,459.108 671.532,458.987C671.662,458.866 671.814,458.806 671.986,458.806C672.167,458.806 672.321,458.869 672.443,458.999C672.564,459.129 672.624,459.28 672.624,459.45C672.624,459.64 672.576,459.825 672.476,460.003C672.379,460.185 672.252,460.354 672.092,460.514C671.932,460.675 671.753,460.817 671.55,460.944C671.351,461.071 671.145,461.177 670.939,461.258L670.773,460.974ZM672.409,460.974C672.648,460.856 672.869,460.714 673.074,460.551C673.283,460.384 673.425,460.224 673.51,460.07C673.32,460.03 673.184,459.949 673.102,459.828C673.02,459.707 672.978,459.577 672.978,459.441C672.978,459.259 673.041,459.108 673.171,458.987C673.302,458.866 673.453,458.806 673.625,458.806C673.806,458.806 673.96,458.869 674.082,458.999C674.203,459.129 674.263,459.28 674.263,459.45C674.263,459.64 674.215,459.825 674.115,460.003C674.018,460.185 673.891,460.354 673.731,460.514C673.571,460.675 673.392,460.817 673.19,460.944C672.99,461.071 672.784,461.177 672.579,461.258L672.409,460.974ZM569.298,469.666C569.025,469.986 568.759,470.279 568.493,470.548C568.227,470.817 567.961,471.047 567.698,471.238C567.438,471.431 567.174,471.583 566.914,471.691C566.654,471.801 566.391,471.855 566.125,471.855C565.901,471.855 565.699,471.816 565.52,471.734C565.339,471.655 565.182,471.543 565.049,471.398C564.919,471.253 564.816,471.078 564.743,470.866C564.673,470.657 564.637,470.422 564.637,470.161C564.637,469.756 564.728,469.336 564.91,468.903C565.088,468.474 565.315,468.053 565.59,467.645C565.865,467.24 566.17,466.853 566.503,466.487C566.836,466.118 567.153,465.794 567.455,465.51L567.836,465.776C567.625,466.091 567.386,466.445 567.123,466.841C566.86,467.237 566.612,467.645 566.379,468.066C566.146,468.489 565.95,468.913 565.79,469.332C565.629,469.756 565.551,470.146 565.551,470.509C565.551,470.751 565.596,470.957 565.687,471.129C565.781,471.298 565.956,471.386 566.216,471.386C566.5,471.386 566.811,471.274 567.15,471.047C567.489,470.823 567.836,470.53 568.197,470.17C568.553,469.811 568.911,469.406 569.267,468.952C569.624,468.501 569.962,468.044 570.281,467.585C570.601,467.122 570.891,466.683 571.155,466.263C571.417,465.846 571.632,465.486 571.795,465.192L572.442,465.51C572.101,466.185 571.772,466.811 571.457,467.394C571.139,467.975 570.858,468.498 570.613,468.961C570.368,469.426 570.175,469.829 570.029,470.17C569.884,470.515 569.811,470.784 569.811,470.987C569.811,471.069 569.829,471.138 569.866,471.19C569.899,471.244 569.956,471.271 570.032,471.271C570.253,471.277 570.492,471.181 570.755,470.987C571.018,470.79 571.284,470.546 571.554,470.252C571.823,469.956 572.086,469.632 572.343,469.281C572.6,468.931 572.829,468.601 573.038,468.293L573.356,468.54C573.32,468.601 573.247,468.722 573.135,468.903C573.023,469.088 572.884,469.296 572.718,469.532C572.552,469.771 572.364,470.019 572.152,470.276C571.937,470.537 571.714,470.775 571.478,470.99C571.242,471.208 570.997,471.383 570.743,471.522C570.489,471.661 570.238,471.731 569.99,471.731C569.836,471.731 569.7,471.704 569.579,471.652C569.455,471.598 569.355,471.528 569.27,471.437C569.189,471.35 569.125,471.247 569.077,471.129C569.028,471.011 569.007,470.887 569.007,470.757C569.007,470.603 569.031,470.433 569.08,470.252C569.131,470.067 569.204,469.874 569.298,469.666ZM581.034,458.706C581.24,458.706 581.415,458.757 581.554,458.857C581.69,458.957 581.76,459.142 581.76,459.408C581.76,459.589 581.723,459.809 581.651,460.064C581.575,460.318 581.476,460.593 581.348,460.889C581.222,461.189 581.073,461.503 580.901,461.83C580.732,462.156 580.544,462.483 580.347,462.81C580.151,463.133 579.942,463.451 579.728,463.756C579.513,464.064 579.298,464.349 579.086,464.606C578.66,465.132 578.291,465.577 577.983,465.936C577.671,466.296 577.405,466.602 577.181,466.853C576.954,467.104 576.767,467.31 576.613,467.464C576.459,467.621 576.325,467.754 576.205,467.869C576.087,467.981 575.978,468.081 575.878,468.174C575.778,468.265 575.675,468.368 575.569,468.48C575.521,468.704 575.5,468.919 575.503,469.121C575.503,469.326 575.506,469.514 575.506,469.683C575.506,470.198 575.588,470.578 575.754,470.827C575.92,471.075 576.153,471.199 576.452,471.199C576.655,471.199 576.857,471.147 577.06,471.044C577.266,470.942 577.465,470.805 577.668,470.642C577.868,470.476 578.064,470.289 578.252,470.08C578.442,469.868 578.621,469.656 578.787,469.442C578.956,469.224 579.108,469.015 579.244,468.816C579.38,468.616 579.498,468.441 579.6,468.293L579.927,468.54C579.909,468.564 579.851,468.658 579.755,468.822C579.658,468.982 579.528,469.178 579.368,469.408C579.21,469.641 579.02,469.886 578.802,470.149C578.584,470.413 578.345,470.654 578.091,470.881C577.837,471.105 577.572,471.289 577.291,471.437C577.012,471.586 576.725,471.661 576.437,471.661C576.196,471.661 575.963,471.613 575.742,471.522C575.518,471.431 575.325,471.286 575.155,471.09C574.989,470.89 574.852,470.639 574.747,470.33C574.644,470.022 574.593,469.654 574.593,469.224C574.593,468.686 574.656,468.123 574.783,467.537C574.91,466.947 575.082,466.357 575.304,465.764C575.521,465.168 575.778,464.585 576.074,464.004C576.368,463.426 576.682,462.876 577.018,462.353C577.351,461.83 577.698,461.346 578.061,460.898C578.424,460.454 578.784,460.067 579.135,459.743C579.486,459.42 579.824,459.166 580.148,458.981C580.475,458.8 580.768,458.706 581.034,458.706ZM575.727,467.691C576.229,467.17 576.716,466.644 577.185,466.109C577.653,465.574 578.095,465.044 578.506,464.525C578.914,464.001 579.292,463.493 579.634,463C579.976,462.507 580.269,462.041 580.511,461.603C580.753,461.167 580.943,460.768 581.079,460.408C581.216,460.049 581.282,459.737 581.282,459.477C581.282,459.432 581.258,459.369 581.212,459.287C581.164,459.208 581.109,459.169 581.043,459.169C580.861,459.169 580.617,459.29 580.317,459.532C580.015,459.773 579.688,460.103 579.337,460.517C578.987,460.935 578.624,461.422 578.249,461.975C577.874,462.532 577.52,463.124 577.19,463.756C576.857,464.388 576.564,465.041 576.304,465.716C576.045,466.387 575.851,467.046 575.727,467.691ZM585.307,469.666C585.035,469.986 584.769,470.279 584.502,470.548C584.236,470.817 583.97,471.047 583.707,471.238C583.447,471.431 583.184,471.583 582.924,471.691C582.663,471.801 582.401,471.855 582.135,471.855C581.911,471.855 581.708,471.816 581.53,471.734C581.348,471.655 581.191,471.543 581.058,471.398C580.928,471.253 580.825,471.078 580.753,470.866C580.683,470.657 580.647,470.422 580.647,470.161C580.647,469.756 580.737,469.336 580.919,468.903C581.097,468.474 581.324,468.053 581.6,467.645C581.874,467.24 582.18,466.853 582.512,466.487C582.845,466.118 583.163,465.794 583.465,465.51L583.846,465.776C583.635,466.091 583.396,466.445 583.132,466.841C582.869,467.237 582.621,467.645 582.389,468.066C582.156,468.489 581.96,468.913 581.799,469.332C581.638,469.756 581.56,470.146 581.56,470.509C581.56,470.751 581.606,470.957 581.696,471.129C581.79,471.298 581.965,471.386 582.225,471.386C582.51,471.386 582.821,471.274 583.16,471.047C583.498,470.823 583.846,470.53 584.206,470.17C584.563,469.811 584.92,469.406 585.276,468.952C585.634,468.501 585.972,468.044 586.29,467.585C586.61,467.122 586.901,466.683 587.164,466.263C587.427,465.846 587.642,465.486 587.805,465.192L588.452,465.51C588.111,466.185 587.781,466.811 587.466,467.394C587.149,467.975 586.867,468.498 586.622,468.961C586.377,469.426 586.184,469.829 586.039,470.17C585.894,470.515 585.821,470.784 585.821,470.987C585.821,471.069 585.839,471.138 585.875,471.19C585.909,471.244 585.966,471.271 586.042,471.271C586.263,471.277 586.501,471.181 586.765,470.987C587.028,470.79 587.294,470.546 587.563,470.252C587.832,469.956 588.095,469.632 588.352,469.281C588.609,468.931 588.839,468.601 589.048,468.293L589.365,468.54C589.329,468.601 589.257,468.722 589.145,468.903C589.033,469.088 588.893,469.296 588.727,469.532C588.561,469.771 588.374,470.019 588.162,470.276C587.947,470.537 587.724,470.775 587.487,470.99C587.251,471.208 587.006,471.383 586.752,471.522C586.499,471.661 586.247,471.731 585.999,471.731C585.845,471.731 585.71,471.704 585.588,471.652C585.464,471.598 585.364,471.528 585.28,471.437C585.198,471.35 585.134,471.247 585.086,471.129C585.038,471.011 585.017,470.887 585.017,470.757C585.017,470.603 585.04,470.433 585.089,470.252C585.141,470.067 585.213,469.874 585.307,469.666ZM594.004,471.295C593.699,471.504 593.382,471.67 593.052,471.798C592.725,471.925 592.41,471.988 592.108,471.988C591.884,471.988 591.661,471.954 591.436,471.891C591.21,471.825 591.007,471.719 590.823,471.568C590.642,471.416 590.494,471.217 590.379,470.969C590.26,470.721 590.202,470.413 590.202,470.046C590.202,469.605 590.284,469.178 590.445,468.77C590.602,468.365 590.817,467.984 591.08,467.633C591.346,467.282 591.651,466.962 591.993,466.671C592.335,466.381 592.689,466.136 593.052,465.931C593.414,465.728 593.777,465.571 594.137,465.459C594.497,465.347 594.827,465.289 595.12,465.289C595.411,465.289 595.659,465.32 595.861,465.383C596.064,465.444 596.236,465.523 596.378,465.613C596.52,465.704 596.632,465.804 596.717,465.909C596.799,466.016 596.868,466.115 596.919,466.212L597.398,465.583L597.69,465.776C597.69,465.782 597.642,465.876 597.548,466.055C597.455,466.236 597.331,466.478 597.177,466.777C597.022,467.08 596.844,467.434 596.641,467.836C596.435,468.241 596.224,468.67 596.003,469.127C595.782,469.581 595.556,470.049 595.329,470.533C595.102,471.02 594.884,471.495 594.679,471.961C595.217,471.655 595.689,471.359 596.097,471.075C596.502,470.79 596.868,470.506 597.188,470.216C597.512,469.925 597.802,469.626 598.063,469.312C598.323,469 598.574,468.658 598.816,468.293L599.142,468.54C598.906,468.925 598.652,469.281 598.377,469.608C598.102,469.938 597.781,470.261 597.412,470.585C597.043,470.905 596.611,471.235 596.118,471.577C595.625,471.915 595.038,472.29 594.358,472.695C593.799,474.071 593.257,475.211 592.737,476.113C592.216,477.011 591.727,477.725 591.261,478.25C590.799,478.777 590.369,479.146 589.97,479.358C589.571,479.572 589.211,479.678 588.893,479.678C588.763,479.678 588.621,479.66 588.473,479.63C588.322,479.596 588.179,479.533 588.05,479.439C587.923,479.343 587.814,479.216 587.729,479.049C587.642,478.883 587.599,478.671 587.599,478.411C587.599,477.915 587.732,477.425 587.992,476.941C588.255,476.454 588.636,475.974 589.136,475.495C589.634,475.018 590.248,474.544 590.971,474.068C591.694,473.597 592.513,473.122 593.43,472.644C593.541,472.39 593.644,472.148 593.738,471.922C593.835,471.695 593.923,471.486 594.004,471.295ZM594.467,470.322C594.625,470.019 594.785,469.723 594.939,469.432C595.096,469.139 595.259,468.846 595.426,468.555C595.595,468.262 595.776,467.963 595.967,467.655C596.161,467.349 596.372,467.028 596.611,466.699C596.599,466.611 596.569,466.517 596.52,466.423C596.475,466.33 596.408,466.242 596.327,466.164C596.242,466.082 596.136,466.016 596.006,465.964C595.876,465.909 595.725,465.882 595.547,465.882C595.347,465.882 595.117,465.909 594.86,465.964C594.603,466.016 594.333,466.109 594.05,466.239C593.765,466.366 593.478,466.541 593.185,466.759C592.894,466.98 592.607,467.252 592.331,467.585C591.924,468.069 591.609,468.552 591.391,469.033C591.174,469.514 591.065,469.953 591.065,470.349C591.065,470.733 591.162,471.023 591.355,471.22C591.551,471.42 591.818,471.519 592.153,471.519C592.508,471.519 592.885,471.41 593.281,471.19C593.681,470.972 594.077,470.681 594.467,470.322ZM588.893,479.225C589.117,479.225 589.35,479.143 589.592,478.977C589.834,478.813 590.079,478.587 590.327,478.299C590.575,478.015 590.82,477.682 591.065,477.305C591.306,476.926 591.545,476.521 591.781,476.094C592.018,475.665 592.244,475.227 592.459,474.779C592.674,474.328 592.879,473.89 593.076,473.458C592.196,473.92 591.443,474.398 590.82,474.897C590.197,475.396 589.686,475.874 589.293,476.327C588.896,476.784 588.609,477.195 588.428,477.561C588.246,477.927 588.158,478.208 588.158,478.402C588.158,478.644 588.21,478.84 588.316,478.995C588.421,479.149 588.615,479.225 588.893,479.225ZM597.769,462.214C597.703,462.462 597.597,462.698 597.449,462.916C597.301,463.133 597.125,463.324 596.922,463.487C596.717,463.65 596.496,463.777 596.257,463.871C596.018,463.968 595.773,464.013 595.525,464.013C595.278,464.013 595.056,463.968 594.857,463.871C594.661,463.777 594.497,463.65 594.37,463.487C594.243,463.324 594.155,463.133 594.11,462.916C594.062,462.698 594.065,462.462 594.119,462.214L594.542,462.214C594.531,462.422 594.561,462.601 594.63,462.755C594.697,462.892 594.806,463.015 594.96,463.127C595.114,463.239 595.35,463.296 595.667,463.296C595.982,463.296 596.242,463.239 596.451,463.127C596.662,463.015 596.835,462.892 596.971,462.755C597.125,462.601 597.249,462.422 597.343,462.214L597.769,462.214ZM604.525,469.666C604.253,469.986 603.987,470.279 603.721,470.548C603.454,470.817 603.189,471.047 602.925,471.238C602.665,471.431 602.402,471.583 602.142,471.691C601.881,471.801 601.618,471.855 601.352,471.855C601.129,471.855 600.926,471.816 600.748,471.734C600.566,471.655 600.409,471.543 600.276,471.398C600.146,471.253 600.043,471.078 599.971,470.866C599.901,470.657 599.865,470.422 599.865,470.161C599.865,469.756 599.955,469.336 600.137,468.903C600.315,468.474 600.542,468.053 600.817,467.645C601.092,467.24 601.398,466.853 601.73,466.487C602.063,466.118 602.381,465.794 602.683,465.51L603.064,465.776C602.853,466.091 602.613,466.445 602.351,466.841C602.088,467.237 601.839,467.645 601.607,468.066C601.374,468.489 601.177,468.913 601.017,469.332C600.856,469.756 600.778,470.146 600.778,470.509C600.778,470.751 600.823,470.957 600.914,471.129C601.008,471.298 601.183,471.386 601.443,471.386C601.728,471.386 602.039,471.274 602.377,471.047C602.716,470.823 603.064,470.53 603.424,470.17C603.781,469.811 604.138,469.406 604.495,468.952C604.852,468.501 605.19,468.044 605.508,467.585C605.828,467.122 606.118,466.683 606.382,466.263C606.645,465.846 606.859,465.486 607.023,465.192L607.67,465.51C607.329,466.185 606.999,466.811 606.684,467.394C606.366,467.975 606.086,468.498 605.841,468.961C605.595,469.426 605.402,469.829 605.257,470.17C605.112,470.515 605.039,470.784 605.039,470.987C605.039,471.069 605.057,471.138 605.093,471.19C605.127,471.244 605.184,471.271 605.26,471.271C605.48,471.277 605.719,471.181 605.983,470.987C606.245,470.79 606.512,470.546 606.781,470.252C607.05,469.956 607.313,469.632 607.57,469.281C607.827,468.931 608.057,468.601 608.266,468.293L608.583,468.54C608.547,468.601 608.474,468.722 608.362,468.903C608.251,469.088 608.111,469.296 607.945,469.532C607.779,469.771 607.591,470.019 607.38,470.276C607.165,470.537 606.941,470.775 606.705,470.99C606.469,471.208 606.224,471.383 605.97,471.522C605.716,471.661 605.465,471.731 605.218,471.731C605.063,471.731 604.927,471.704 604.806,471.652C604.682,471.598 604.582,471.528 604.498,471.437C604.416,471.35 604.352,471.247 604.304,471.129C604.256,471.011 604.234,470.887 604.234,470.757C604.234,470.603 604.259,470.433 604.307,470.252C604.359,470.067 604.431,469.874 604.525,469.666ZM617.22,466.777C617.389,466.578 617.568,466.39 617.749,466.221C617.934,466.048 618.115,465.9 618.3,465.776C618.481,465.652 618.665,465.556 618.844,465.489C619.026,465.422 619.198,465.386 619.364,465.386C619.491,465.386 619.621,465.41 619.749,465.453C619.875,465.498 619.99,465.565 620.09,465.658C620.19,465.749 620.268,465.864 620.329,466.006C620.387,466.149 620.416,466.318 620.416,466.511C620.416,466.796 620.377,467.073 620.302,467.349C620.226,467.624 620.126,467.89 620.008,468.15C619.891,468.41 619.766,468.661 619.633,468.903C619.5,469.145 619.373,469.378 619.255,469.599C619.137,469.823 619.04,470.031 618.965,470.228C618.886,470.427 618.85,470.609 618.85,470.775C618.85,470.902 618.883,470.996 618.95,471.054C619.02,471.108 619.092,471.138 619.168,471.138C619.322,471.138 619.503,471.047 619.712,470.872C619.923,470.694 620.141,470.467 620.371,470.188C620.604,469.91 620.834,469.605 621.067,469.272C621.302,468.94 621.524,468.613 621.738,468.293L622.056,468.54C621.98,468.665 621.88,468.828 621.759,469.033C621.638,469.236 621.499,469.454 621.339,469.69C621.179,469.922 621.006,470.158 620.815,470.397C620.628,470.636 620.429,470.851 620.217,471.044C620.008,471.235 619.791,471.392 619.566,471.513C619.343,471.634 619.116,471.695 618.892,471.695C618.768,471.695 618.65,471.677 618.535,471.643C618.418,471.607 618.318,471.549 618.227,471.471C618.139,471.389 618.07,471.283 618.015,471.156C617.964,471.026 617.936,470.866 617.936,470.675C617.936,470.416 617.979,470.161 618.07,469.913C618.157,469.666 618.27,469.42 618.405,469.178C618.541,468.937 618.687,468.695 618.844,468.456C619.001,468.217 619.146,467.981 619.283,467.745C619.418,467.506 619.531,467.27 619.618,467.032C619.709,466.793 619.751,466.548 619.751,466.3C619.751,466.176 619.73,466.075 619.682,466.003C619.633,465.927 619.545,465.891 619.415,465.891C619.21,465.891 618.989,465.976 618.76,466.145C618.529,466.312 618.291,466.539 618.042,466.823C617.794,467.107 617.541,467.437 617.281,467.812C617.02,468.187 616.763,468.579 616.506,468.997C616.249,469.415 615.995,469.835 615.744,470.264C615.493,470.694 615.251,471.105 615.022,471.501L614.278,471.111C614.589,470.467 614.885,469.892 615.157,469.384C615.433,468.876 615.675,468.417 615.88,468.005C616.086,467.594 616.249,467.219 616.367,466.88C616.485,466.541 616.546,466.221 616.546,465.918C616.546,465.861 616.54,465.798 616.527,465.737C616.515,465.674 616.491,465.619 616.458,465.574C616.421,465.526 616.376,465.486 616.319,465.453C616.265,465.42 616.192,465.404 616.101,465.404C615.901,465.404 615.699,465.498 615.49,465.683C615.285,465.87 615.067,466.124 614.834,466.445C614.604,466.768 614.359,467.143 614.096,467.57C613.833,467.999 613.549,468.453 613.247,468.931C612.941,469.408 612.611,469.901 612.258,470.406C611.904,470.911 611.517,471.401 611.096,471.873L610.485,471.465C610.673,471.181 610.873,470.881 611.084,470.566C611.293,470.249 611.499,469.928 611.704,469.605C611.907,469.278 612.104,468.955 612.288,468.634C612.475,468.314 612.639,468.008 612.781,467.718C612.923,467.428 613.035,467.161 613.116,466.919C613.198,466.677 613.24,466.472 613.24,466.3C613.24,466.1 613.189,465.955 613.089,465.864C612.99,465.776 612.859,465.731 612.699,465.731C612.511,465.731 612.327,465.8 612.146,465.936C611.967,466.073 611.776,466.263 611.58,466.511C611.381,466.759 611.169,467.059 610.942,467.403C610.715,467.748 610.455,468.129 610.165,468.54L609.847,468.293C610.162,467.796 610.443,467.361 610.694,466.983C610.945,466.605 611.181,466.287 611.408,466.033C611.631,465.779 611.855,465.589 612.076,465.459C612.297,465.329 612.539,465.262 612.799,465.262C612.875,465.262 612.974,465.277 613.095,465.307C613.216,465.338 613.334,465.389 613.452,465.468C613.57,465.543 613.676,465.649 613.767,465.785C613.86,465.921 613.915,466.097 613.933,466.309C614.262,465.882 614.607,465.543 614.967,465.289C615.33,465.035 615.669,464.908 615.986,464.908C616.216,464.908 616.412,464.954 616.573,465.044C616.73,465.138 616.86,465.256 616.957,465.404C617.054,465.553 617.127,465.719 617.168,465.906C617.214,466.091 617.235,466.279 617.235,466.469C617.235,466.514 617.235,466.565 617.232,466.62C617.229,466.671 617.223,466.726 617.22,466.777ZM627.448,469.666C627.175,469.986 626.909,470.279 626.644,470.548C626.377,470.817 626.111,471.047 625.848,471.238C625.588,471.431 625.325,471.583 625.065,471.691C624.804,471.801 624.541,471.855 624.275,471.855C624.051,471.855 623.849,471.816 623.671,471.734C623.489,471.655 623.331,471.543 623.199,471.398C623.068,471.253 622.965,471.078 622.893,470.866C622.824,470.657 622.787,470.422 622.787,470.161C622.787,469.756 622.878,469.336 623.059,468.903C623.238,468.474 623.464,468.053 623.74,467.645C624.015,467.24 624.32,466.853 624.653,466.487C624.986,466.118 625.304,465.794 625.606,465.51L625.987,465.776C625.775,466.091 625.536,466.445 625.274,466.841C625.01,467.237 624.762,467.645 624.529,468.066C624.296,468.489 624.1,468.913 623.94,469.332C623.779,469.756 623.701,470.146 623.701,470.509C623.701,470.751 623.746,470.957 623.837,471.129C623.93,471.298 624.106,471.386 624.366,471.386C624.65,471.386 624.962,471.274 625.3,471.047C625.639,470.823 625.987,470.53 626.347,470.17C626.704,469.811 627.06,469.406 627.417,468.952C627.774,468.501 628.113,468.044 628.43,467.585C628.751,467.122 629.041,466.683 629.304,466.263C629.567,465.846 629.782,465.486 629.946,465.192L630.593,465.51C630.251,466.185 629.921,466.811 629.607,467.394C629.289,467.975 629.008,468.498 628.763,468.961C628.518,469.426 628.324,469.829 628.179,470.17C628.034,470.515 627.962,470.784 627.962,470.987C627.962,471.069 627.98,471.138 628.016,471.19C628.049,471.244 628.107,471.271 628.182,471.271C628.403,471.277 628.642,471.181 628.905,470.987C629.168,470.79 629.434,470.546 629.704,470.252C629.973,469.956 630.236,469.632 630.493,469.281C630.75,468.931 630.98,468.601 631.188,468.293L631.506,468.54C631.47,468.601 631.397,468.722 631.285,468.903C631.173,469.088 631.034,469.296 630.868,469.532C630.701,469.771 630.514,470.019 630.302,470.276C630.088,470.537 629.864,470.775 629.627,470.99C629.392,471.208 629.147,471.383 628.893,471.522C628.639,471.661 628.388,471.731 628.14,471.731C627.986,471.731 627.849,471.704 627.729,471.652C627.604,471.598 627.505,471.528 627.42,471.437C627.339,471.35 627.275,471.247 627.227,471.129C627.178,471.011 627.157,470.887 627.157,470.757C627.157,470.603 627.182,470.433 627.23,470.252C627.281,470.067 627.354,469.874 627.448,469.666ZM480.145,469.666C479.872,469.986 479.606,470.279 479.341,470.548C479.074,470.817 478.808,471.047 478.545,471.238C478.285,471.431 478.021,471.583 477.761,471.691C477.501,471.801 477.238,471.855 476.972,471.855C476.748,471.855 476.546,471.816 476.368,471.734C476.186,471.655 476.029,471.543 475.896,471.398C475.765,471.253 475.663,471.078 475.59,470.866C475.521,470.657 475.484,470.422 475.484,470.161C475.484,469.756 475.575,469.336 475.756,468.903C475.935,468.474 476.162,468.053 476.437,467.645C476.712,467.24 477.017,466.853 477.35,466.487C477.683,466.118 478.001,465.794 478.303,465.51L478.684,465.776C478.472,466.091 478.233,466.445 477.97,466.841C477.707,467.237 477.459,467.645 477.226,468.066C476.993,468.489 476.796,468.913 476.637,469.332C476.476,469.756 476.397,470.146 476.397,470.509C476.397,470.751 476.443,470.957 476.534,471.129C476.627,471.298 476.803,471.386 477.063,471.386C477.347,471.386 477.658,471.274 477.997,471.047C478.336,470.823 478.684,470.53 479.044,470.17C479.4,469.811 479.758,469.406 480.114,468.952C480.471,468.501 480.81,468.044 481.127,467.585C481.448,467.122 481.738,466.683 482.001,466.263C482.264,465.846 482.479,465.486 482.642,465.192L483.289,465.51C482.948,466.185 482.618,466.811 482.304,467.394C481.986,467.975 481.705,468.498 481.46,468.961C481.215,469.426 481.021,469.829 480.876,470.17C480.731,470.515 480.659,470.784 480.659,470.987C480.659,471.069 480.676,471.138 480.713,471.19C480.746,471.244 480.804,471.271 480.879,471.271C481.1,471.277 481.339,471.181 481.602,470.987C481.865,470.79 482.132,470.546 482.4,470.252C482.67,469.956 482.933,469.632 483.189,469.281C483.447,468.931 483.677,468.601 483.885,468.293L484.203,468.54C484.167,468.601 484.094,468.722 483.982,468.903C483.87,469.088 483.731,469.296 483.565,469.532C483.398,469.771 483.211,470.019 482.999,470.276C482.785,470.537 482.56,470.775 482.325,470.99C482.089,471.208 481.844,471.383 481.59,471.522C481.336,471.661 481.085,471.731 480.837,471.731C480.683,471.731 480.547,471.704 480.425,471.652C480.301,471.598 480.202,471.528 480.118,471.437C480.035,471.35 479.972,471.247 479.924,471.129C479.876,471.011 479.854,470.887 479.854,470.757C479.854,470.603 479.878,470.433 479.927,470.252C479.978,470.067 480.051,469.874 480.145,469.666ZM492.864,466.998C492.864,467.252 492.822,467.512 492.731,467.775C492.643,468.039 492.531,468.301 492.395,468.564C492.259,468.825 492.114,469.085 491.96,469.339C491.809,469.593 491.663,469.838 491.527,470.073C491.391,470.309 491.279,470.537 491.191,470.751C491.101,470.966 491.058,471.162 491.058,471.34C491.058,471.477 491.085,471.568 491.146,471.616C491.204,471.661 491.27,471.685 491.34,471.685C491.566,471.685 491.818,471.577 492.093,471.353C492.371,471.132 492.652,470.853 492.939,470.518C493.227,470.179 493.511,469.814 493.795,469.417C494.079,469.021 494.336,468.646 494.567,468.293L494.884,468.54C494.838,468.613 494.751,468.752 494.627,468.961C494.503,469.172 494.349,469.411 494.167,469.68C493.983,469.95 493.78,470.228 493.55,470.521C493.324,470.814 493.082,471.084 492.822,471.329C492.561,471.573 492.292,471.776 492.02,471.933C491.745,472.094 491.466,472.172 491.191,472.172C491.031,472.172 490.886,472.148 490.756,472.094C490.626,472.039 490.514,471.967 490.423,471.873C490.333,471.78 490.26,471.667 490.205,471.54C490.154,471.413 490.127,471.28 490.127,471.138C490.127,470.905 490.178,470.657 490.281,470.388C490.384,470.119 490.514,469.844 490.668,469.559C490.819,469.275 490.989,468.991 491.174,468.704C491.355,468.42 491.524,468.144 491.678,467.884C491.833,467.624 491.96,467.385 492.062,467.164C492.165,466.941 492.216,466.75 492.216,466.593C492.216,466.409 492.168,466.255 492.071,466.13C491.975,466.006 491.836,465.946 491.66,465.946C491.469,465.946 491.252,466.024 491.004,466.178C490.756,466.336 490.478,466.565 490.172,466.868C489.864,467.167 489.528,467.539 489.165,467.978C488.802,468.42 488.41,468.919 487.983,469.481C487.741,469.805 487.506,470.119 487.275,470.419C487.172,470.548 487.073,470.681 486.973,470.817C486.873,470.954 486.773,471.09 486.67,471.22C486.571,471.353 486.477,471.48 486.389,471.601C486.298,471.722 486.22,471.828 486.15,471.915L485.37,471.598L486.407,470.17C486.553,469.971 486.704,469.756 486.858,469.523C487.012,469.293 487.164,469.057 487.314,468.813C487.465,468.568 487.608,468.32 487.744,468.072C487.88,467.824 488.007,467.582 488.125,467.346C488.297,466.992 488.415,466.696 488.479,466.463C488.546,466.23 488.576,466.042 488.576,465.9C488.576,465.74 488.549,465.637 488.488,465.586C488.43,465.537 488.346,465.51 488.24,465.51C488.128,465.51 487.998,465.568 487.856,465.683C487.711,465.8 487.56,465.946 487.408,466.127C487.254,466.306 487.1,466.511 486.943,466.738C486.785,466.965 486.637,467.192 486.495,467.415C486.353,467.64 486.22,467.854 486.096,468.053C485.972,468.253 485.869,468.417 485.785,468.54L485.466,468.293C485.769,467.821 486.041,467.388 486.287,466.996C486.531,466.602 486.767,466.263 486.994,465.982C487.224,465.698 487.445,465.477 487.659,465.32C487.874,465.165 488.104,465.087 488.346,465.087C488.476,465.087 488.603,465.111 488.723,465.165C488.845,465.22 488.95,465.298 489.042,465.401C489.132,465.504 489.205,465.628 489.259,465.776C489.31,465.924 489.338,466.097 489.338,466.291C489.338,466.445 489.32,466.605 489.286,466.768C489.546,466.514 489.788,466.306 490.012,466.139C490.235,465.976 490.444,465.843 490.632,465.746C490.822,465.649 490.995,465.58 491.155,465.537C491.315,465.495 491.458,465.477 491.588,465.477C491.703,465.477 491.833,465.495 491.978,465.537C492.126,465.58 492.265,465.656 492.395,465.767C492.525,465.879 492.637,466.036 492.728,466.233C492.818,466.429 492.864,466.687 492.864,466.998ZM500.276,469.666C500.003,469.986 499.737,470.279 499.471,470.548C499.205,470.817 498.939,471.047 498.676,471.238C498.416,471.431 498.153,471.583 497.893,471.691C497.633,471.801 497.37,471.855 497.104,471.855C496.88,471.855 496.678,471.816 496.498,471.734C496.317,471.655 496.16,471.543 496.027,471.398C495.897,471.253 495.794,471.078 495.721,470.866C495.652,470.657 495.615,470.422 495.615,470.161C495.615,469.756 495.706,469.336 495.888,468.903C496.066,468.474 496.293,468.053 496.568,467.645C496.843,467.24 497.149,466.853 497.482,466.487C497.814,466.118 498.131,465.794 498.434,465.51L498.815,465.776C498.604,466.091 498.364,466.445 498.102,466.841C497.838,467.237 497.59,467.645 497.358,468.066C497.125,468.489 496.928,468.913 496.768,469.332C496.608,469.756 496.529,470.146 496.529,470.509C496.529,470.751 496.574,470.957 496.665,471.129C496.759,471.298 496.934,471.386 497.194,471.386C497.478,471.386 497.79,471.274 498.129,471.047C498.467,470.823 498.815,470.53 499.175,470.17C499.532,469.811 499.888,469.406 500.246,468.952C500.602,468.501 500.941,468.044 501.259,467.585C501.579,467.122 501.87,466.683 502.133,466.263C502.396,465.846 502.611,465.486 502.774,465.192L503.421,465.51C503.079,466.185 502.75,466.811 502.435,467.394C502.118,467.975 501.836,468.498 501.591,468.961C501.347,469.426 501.153,469.829 501.008,470.17C500.863,470.515 500.79,470.784 500.79,470.987C500.79,471.069 500.808,471.138 500.845,471.19C500.878,471.244 500.935,471.271 501.011,471.271C501.231,471.277 501.471,471.181 501.733,470.987C501.997,470.79 502.263,470.546 502.532,470.252C502.801,469.956 503.064,469.632 503.321,469.281C503.578,468.931 503.808,468.601 504.017,468.293L504.334,468.54C504.298,468.601 504.226,468.722 504.114,468.903C504.001,469.088 503.863,469.296 503.696,469.532C503.53,469.771 503.342,470.019 503.131,470.276C502.916,470.537 502.692,470.775 502.456,470.99C502.221,471.208 501.975,471.383 501.721,471.522C501.467,471.661 501.216,471.731 500.969,471.731C500.814,471.731 500.678,471.704 500.557,471.652C500.433,471.598 500.333,471.528 500.249,471.437C500.167,471.35 500.104,471.247 500.055,471.129C500.007,471.011 499.986,470.887 499.986,470.757C499.986,470.603 500.01,470.433 500.058,470.252C500.109,470.067 500.182,469.874 500.276,469.666ZM508.063,471.401C508.096,471.468 508.151,471.571 508.22,471.71C508.292,471.849 508.344,472.012 508.38,472.199C508.746,471.97 509.106,471.722 509.457,471.461C509.808,471.199 510.15,470.908 510.479,470.591C510.812,470.276 511.132,469.928 511.441,469.55C511.753,469.172 512.049,468.755 512.333,468.293L512.651,468.54C512.348,469.037 512.036,469.484 511.71,469.883C511.386,470.282 511.048,470.645 510.697,470.978C510.346,471.307 509.98,471.613 509.599,471.894C509.218,472.175 508.819,472.441 508.408,472.695C508.383,473.246 508.263,473.8 508.045,474.359C507.824,474.915 507.546,475.454 507.207,475.974C506.866,476.494 506.481,476.981 506.055,477.431C505.625,477.885 505.193,478.278 504.751,478.614C504.313,478.952 503.883,479.218 503.466,479.412C503.052,479.606 502.683,479.705 502.365,479.705C502.136,479.705 501.942,479.663 501.785,479.584C501.628,479.506 501.503,479.403 501.407,479.279C501.313,479.155 501.246,479.019 501.204,478.871C501.162,478.723 501.141,478.584 501.141,478.447C501.141,478.103 501.249,477.736 501.462,477.344C501.673,476.95 501.987,476.542 502.405,476.122C502.822,475.699 503.336,475.269 503.95,474.83C504.564,474.395 505.271,473.96 506.067,473.53C506.345,473.376 506.62,473.225 506.893,473.077C507.165,472.928 507.434,472.777 507.706,472.617C507.706,472.587 507.709,472.556 507.712,472.523C507.715,472.49 507.715,472.46 507.715,472.43C507.715,472.254 507.703,472.1 507.676,471.973C507.649,471.846 507.613,471.74 507.564,471.652C507.24,471.782 506.965,471.846 506.741,471.846C506.524,471.846 506.339,471.794 506.191,471.691C506.046,471.589 505.97,471.446 505.97,471.271C505.97,471.081 506.052,470.936 506.218,470.833C506.385,470.727 506.581,470.675 506.811,470.675C507.12,470.675 507.407,470.775 507.673,470.978C507.942,470.766 508.205,470.491 508.459,470.158C508.713,469.826 508.94,469.463 509.133,469.076C509.327,468.691 509.484,468.295 509.602,467.89C509.72,467.485 509.781,467.107 509.781,466.75C509.781,466.556 509.756,466.39 509.705,466.255C509.653,466.118 509.587,466.009 509.505,465.921C509.423,465.837 509.327,465.773 509.221,465.734C509.115,465.692 509.003,465.671 508.885,465.671C508.643,465.671 508.411,465.731 508.19,465.849C507.969,465.967 507.76,466.118 507.564,466.303C507.37,466.49 507.189,466.696 507.02,466.919C506.853,467.143 506.699,467.364 506.56,467.576C506.421,467.788 506.296,467.981 506.191,468.156C506.085,468.329 505.997,468.459 505.925,468.54L505.598,468.293C505.668,468.199 505.759,468.059 505.868,467.872C505.976,467.688 506.106,467.479 506.254,467.246C506.403,467.016 506.566,466.78 506.751,466.539C506.932,466.296 507.135,466.075 507.352,465.879C507.57,465.68 507.809,465.52 508.066,465.392C508.323,465.265 508.595,465.202 508.885,465.202C509.163,465.202 509.411,465.247 509.632,465.338C509.856,465.428 510.044,465.556 510.201,465.719C510.358,465.882 510.479,466.079 510.564,466.309C510.648,466.539 510.694,466.796 510.694,467.08C510.694,467.494 510.621,467.908 510.479,468.329C510.337,468.749 510.146,469.148 509.907,469.529C509.668,469.91 509.391,470.261 509.07,470.585C508.752,470.905 508.417,471.177 508.063,471.401ZM505.81,476.24C505.994,476.01 506.176,475.768 506.36,475.514C506.542,475.26 506.714,475 506.874,474.74C507.035,474.477 507.177,474.214 507.304,473.951C507.43,473.688 507.531,473.43 507.6,473.183L506.296,473.92C505.541,474.338 504.9,474.734 504.371,475.103C503.841,475.472 503.406,475.814 503.061,476.128C502.713,476.445 502.444,476.73 502.251,476.984C502.054,477.238 501.909,477.461 501.812,477.658C501.712,477.852 501.655,478.015 501.634,478.142C501.613,478.269 501.604,478.36 501.604,478.42C501.604,478.502 501.613,478.587 501.631,478.671C501.646,478.759 501.682,478.835 501.73,478.898C501.782,478.965 501.848,479.016 501.93,479.058C502.011,479.097 502.123,479.119 502.26,479.119C502.405,479.119 502.586,479.08 502.804,478.995C503.019,478.913 503.27,478.765 503.56,478.547C503.85,478.332 504.18,478.039 504.552,477.667C504.924,477.295 505.344,476.82 505.81,476.24ZM507.307,471.244C507.225,471.19 507.138,471.15 507.044,471.123C506.947,471.096 506.868,471.084 506.801,471.084C506.548,471.084 506.421,471.141 506.421,471.253C506.421,471.365 506.533,471.42 506.751,471.42C506.808,471.42 506.895,471.407 507.008,471.38C507.12,471.353 507.219,471.307 507.307,471.244ZM542.664,474.655C542.646,474.667 542.568,474.706 542.425,474.779C542.283,474.848 542.099,474.927 541.866,475.009C541.636,475.091 541.373,475.166 541.08,475.236C540.784,475.302 540.475,475.336 540.157,475.336C539.637,475.336 539.172,475.245 538.758,475.06C538.343,474.879 537.995,474.622 537.708,474.286C537.421,473.954 537.2,473.551 537.049,473.083C536.895,472.611 536.816,472.09 536.816,471.519C536.816,470.969 536.886,470.364 537.022,469.705C537.157,469.048 537.333,468.371 537.554,467.672C537.772,466.977 538.017,466.279 538.292,465.583C538.567,464.884 538.845,464.222 539.126,463.593C539.405,462.964 539.674,462.389 539.928,461.866C540.182,461.343 540.4,460.908 540.584,460.559C540.252,460.938 539.873,461.374 539.45,461.866C539.024,462.359 538.57,462.901 538.089,463.487C537.608,464.074 537.106,464.699 536.586,465.365C536.066,466.03 535.543,466.72 535.014,467.437C534.484,468.156 533.961,468.891 533.441,469.644C532.921,470.397 532.425,471.156 531.953,471.915L531.527,471.776C531.617,470.811 531.762,469.856 531.965,468.909C532.171,467.96 532.401,467.05 532.658,466.173C532.915,465.296 533.187,464.47 533.471,463.699C533.758,462.928 534.034,462.238 534.291,461.63C533.898,462.175 533.501,462.765 533.108,463.399C532.715,464.032 532.319,464.685 531.917,465.356C531.518,466.027 531.104,466.699 530.677,467.376C530.253,468.053 529.809,468.701 529.35,469.324C528.887,469.95 528.403,470.53 527.892,471.072C527.381,471.61 526.836,472.082 526.262,472.481C525.684,472.877 525.071,473.191 524.417,473.424C523.767,473.654 523.068,473.769 522.321,473.769C521.75,473.769 521.23,473.681 520.764,473.512C520.298,473.339 519.896,473.107 519.563,472.807C519.231,472.508 518.973,472.157 518.792,471.758C518.61,471.355 518.523,470.92 518.523,470.455C518.523,470.001 518.596,469.587 518.738,469.218C518.883,468.849 519.077,468.522 519.318,468.235C519.56,467.948 519.844,467.7 520.165,467.491C520.489,467.282 520.824,467.11 521.181,466.974C521.535,466.838 521.892,466.738 522.258,466.671C522.621,466.608 522.965,466.575 523.298,466.575C523.982,466.575 524.638,466.656 525.264,466.816C525.89,466.98 526.492,467.267 527.072,467.681L526.761,468.026C526.755,468.021 526.679,467.966 526.531,467.863C526.383,467.76 526.171,467.645 525.893,467.521C525.615,467.397 525.273,467.285 524.862,467.186C524.45,467.086 523.982,467.034 523.455,467.034C522.95,467.034 522.458,467.104 521.982,467.24C521.505,467.376 521.087,467.579 520.725,467.854C520.362,468.129 520.068,468.474 519.85,468.891C519.633,469.309 519.524,469.796 519.524,470.358C519.524,470.76 519.603,471.132 519.757,471.474C519.914,471.816 520.132,472.112 520.41,472.363C520.685,472.614 521.021,472.81 521.411,472.953C521.802,473.095 522.231,473.168 522.702,473.168C523.413,473.168 524.09,473.016 524.741,472.714C525.391,472.414 526.017,472.006 526.619,471.492C527.224,470.978 527.801,470.379 528.361,469.693C528.92,469.009 529.455,468.284 529.972,467.521C530.49,466.759 530.991,465.979 531.476,465.175C531.959,464.37 532.428,463.596 532.885,462.849C533.339,462.102 533.783,461.4 534.212,460.75C534.645,460.097 535.065,459.534 535.479,459.06L535.878,459.302C535.619,460.091 535.395,460.787 535.204,461.385C535.017,461.987 534.853,462.513 534.715,462.967C534.575,463.424 534.457,463.816 534.357,464.147C534.26,464.479 534.176,464.773 534.106,465.032C534.037,465.292 533.974,465.529 533.916,465.737C533.858,465.946 533.804,466.154 533.746,466.363C533.692,466.568 533.629,466.787 533.556,467.016C533.487,467.246 533.402,467.515 533.299,467.818C533.199,468.123 533.081,468.474 532.945,468.873C532.809,469.272 532.646,469.744 532.449,470.285C532.945,469.535 533.456,468.797 533.976,468.072C534.499,467.346 535.023,466.641 535.543,465.964C536.06,465.283 536.571,464.633 537.07,464.013C537.569,463.394 538.041,462.819 538.488,462.286C538.932,461.754 539.344,461.271 539.719,460.838C540.094,460.402 540.421,460.034 540.699,459.725C540.974,459.42 541.192,459.181 541.349,459.008C541.506,458.836 541.588,458.748 541.594,458.742L541.966,459.017C541.616,459.879 541.271,460.745 540.929,461.609C540.587,462.474 540.258,463.318 539.94,464.137C539.625,464.96 539.329,465.749 539.06,466.511C538.788,467.273 538.552,467.987 538.349,468.652C538.15,469.318 537.992,469.922 537.877,470.467C537.76,471.014 537.702,471.483 537.702,471.873C537.702,472.333 537.756,472.75 537.868,473.122C537.977,473.494 538.135,473.808 538.34,474.068C538.549,474.328 538.803,474.528 539.109,474.667C539.411,474.806 539.756,474.876 540.14,474.876C540.43,474.876 540.711,474.842 540.987,474.779C541.261,474.713 541.503,474.643 541.718,474.565C541.93,474.489 542.102,474.419 542.232,474.353C542.359,474.289 542.429,474.256 542.435,474.256L542.664,474.655ZM546.868,469.666C546.596,469.986 546.329,470.279 546.064,470.548C545.797,470.817 545.531,471.047 545.268,471.238C545.008,471.431 544.745,471.583 544.485,471.691C544.225,471.801 543.962,471.855 543.696,471.855C543.472,471.855 543.269,471.816 543.091,471.734C542.909,471.655 542.752,471.543 542.619,471.398C542.489,471.253 542.386,471.078 542.314,470.866C542.244,470.657 542.208,470.422 542.208,470.161C542.208,469.756 542.299,469.336 542.48,468.903C542.658,468.474 542.885,468.053 543.161,467.645C543.436,467.24 543.741,466.853 544.074,466.487C544.406,466.118 544.724,465.794 545.026,465.51L545.407,465.776C545.196,466.091 544.957,466.445 544.694,466.841C544.431,467.237 544.183,467.645 543.95,468.066C543.717,468.489 543.52,468.913 543.36,469.332C543.2,469.756 543.121,470.146 543.121,470.509C543.121,470.751 543.167,470.957 543.257,471.129C543.351,471.298 543.526,471.386 543.787,471.386C544.071,471.386 544.382,471.274 544.721,471.047C545.06,470.823 545.407,470.53 545.767,470.17C546.124,469.811 546.481,469.406 546.838,468.952C547.195,468.501 547.533,468.044 547.851,467.585C548.171,467.122 548.462,466.683 548.725,466.263C548.988,465.846 549.203,465.486 549.366,465.192L550.013,465.51C549.671,466.185 549.342,466.811 549.027,467.394C548.71,467.975 548.428,468.498 548.183,468.961C547.939,469.426 547.745,469.829 547.6,470.17C547.455,470.515 547.382,470.784 547.382,470.987C547.382,471.069 547.4,471.138 547.437,471.19C547.47,471.244 547.527,471.271 547.603,471.271C547.824,471.277 548.063,471.181 548.326,470.987C548.589,470.79 548.855,470.546 549.124,470.252C549.393,469.956 549.656,469.632 549.913,469.281C550.17,468.931 550.4,468.601 550.609,468.293L550.926,468.54C550.89,468.601 550.818,468.722 550.706,468.903C550.594,469.088 550.455,469.296 550.288,469.532C550.122,469.771 549.935,470.019 549.723,470.276C549.508,470.537 549.284,470.775 549.049,470.99C548.813,471.208 548.567,471.383 548.313,471.522C548.06,471.661 547.808,471.731 547.561,471.731C547.406,471.731 547.27,471.704 547.15,471.652C547.025,471.598 546.925,471.528 546.841,471.437C546.759,471.35 546.696,471.247 546.647,471.129C546.599,471.011 546.578,470.887 546.578,470.757C546.578,470.603 546.602,470.433 546.651,470.252C546.702,470.067 546.774,469.874 546.868,469.666ZM553.989,464.289C554.047,464.189 554.153,464.013 554.304,463.765C554.455,463.517 554.631,463.242 554.836,462.943C555.039,462.64 555.26,462.338 555.499,462.032C555.738,461.73 555.973,461.47 556.203,461.258L556.602,461.497C556.348,461.918 556.088,462.362 555.822,462.831C555.556,463.3 555.293,463.786 555.033,464.289L557.924,464.289L557.746,464.748L554.794,464.748C554.528,465.28 554.28,465.81 554.047,466.336C553.814,466.862 553.609,467.364 553.43,467.842C553.255,468.32 553.115,468.767 553.013,469.184C552.914,469.599 552.865,469.962 552.865,470.268C552.865,470.651 552.953,470.929 553.131,471.096C553.306,471.265 553.524,471.35 553.784,471.35C554.017,471.35 554.253,471.28 554.494,471.141C554.737,471.002 554.973,470.827 555.208,470.614C555.441,470.4 555.662,470.167 555.871,469.913C556.082,469.66 556.267,469.42 556.43,469.197C556.593,468.973 556.726,468.776 556.832,468.607C556.938,468.441 557.005,468.335 557.029,468.293L557.356,468.54C557.15,468.885 556.917,469.248 556.657,469.632C556.397,470.016 556.107,470.37 555.792,470.7C555.474,471.026 555.133,471.298 554.761,471.513C554.389,471.728 553.987,471.837 553.555,471.837C553.288,471.837 553.058,471.789 552.859,471.695C552.662,471.601 552.496,471.471 552.36,471.301C552.224,471.132 552.121,470.933 552.054,470.702C551.985,470.473 551.951,470.222 551.951,469.95C551.951,469.771 551.979,469.52 552.036,469.197C552.091,468.873 552.187,468.486 552.323,468.041C552.46,467.594 552.641,467.095 552.868,466.539C553.095,465.985 553.385,465.386 553.733,464.748L552.26,464.748L552.438,464.289L553.989,464.289ZM565.024,458.706C565.23,458.706 565.406,458.757 565.545,458.857C565.681,458.957 565.751,459.142 565.751,459.408C565.751,459.589 565.714,459.809 565.641,460.064C565.566,460.318 565.466,460.593 565.339,460.889C565.212,461.189 565.064,461.503 564.891,461.83C564.722,462.156 564.534,462.483 564.338,462.81C564.142,463.133 563.933,463.451 563.718,463.756C563.503,464.064 563.289,464.349 563.077,464.606C562.651,465.132 562.281,465.577 561.974,465.936C561.662,466.296 561.395,466.602 561.172,466.853C560.945,467.104 560.757,467.31 560.603,467.464C560.449,467.621 560.316,467.754 560.195,467.869C560.077,467.981 559.968,468.081 559.868,468.174C559.769,468.265 559.666,468.368 559.56,468.48C559.511,468.704 559.49,468.919 559.493,469.121C559.493,469.326 559.496,469.514 559.496,469.683C559.496,470.198 559.578,470.578 559.745,470.827C559.911,471.075 560.143,471.199 560.443,471.199C560.646,471.199 560.848,471.147 561.051,471.044C561.256,470.942 561.456,470.805 561.659,470.642C561.858,470.476 562.055,470.289 562.242,470.08C562.433,469.868 562.612,469.656 562.778,469.442C562.947,469.224 563.098,469.015 563.234,468.816C563.37,468.616 563.488,468.441 563.591,468.293L563.918,468.54C563.9,468.564 563.842,468.658 563.745,468.822C563.648,468.982 563.519,469.178 563.358,469.408C563.201,469.641 563.01,469.886 562.793,470.149C562.575,470.413 562.336,470.654 562.082,470.881C561.828,471.105 561.562,471.289 561.281,471.437C561.002,471.586 560.715,471.661 560.428,471.661C560.186,471.661 559.953,471.613 559.733,471.522C559.508,471.431 559.315,471.286 559.146,471.09C558.979,470.89 558.843,470.639 558.737,470.33C558.634,470.022 558.583,469.654 558.583,469.224C558.583,468.686 558.647,468.123 558.774,467.537C558.901,466.947 559.073,466.357 559.294,465.764C559.511,465.168 559.769,464.585 560.065,464.004C560.358,463.426 560.673,462.876 561.008,462.353C561.341,461.83 561.689,461.346 562.052,460.898C562.415,460.454 562.774,460.067 563.125,459.743C563.476,459.42 563.815,459.166 564.139,458.981C564.465,458.8 564.758,458.706 565.024,458.706ZM559.717,467.691C560.219,467.17 560.706,466.644 561.175,466.109C561.643,465.574 562.085,465.044 562.497,464.525C562.904,464.001 563.283,463.493 563.625,463C563.966,462.507 564.26,462.041 564.501,461.603C564.744,461.167 564.934,460.768 565.07,460.408C565.206,460.049 565.273,459.737 565.273,459.477C565.273,459.432 565.249,459.369 565.203,459.287C565.155,459.208 565.1,459.169 565.033,459.169C564.852,459.169 564.607,459.29 564.308,459.532C564.005,459.773 563.679,460.103 563.328,460.517C562.977,460.935 562.615,461.422 562.24,461.975C561.864,462.532 561.51,463.124 561.181,463.756C560.848,464.388 560.555,465.041 560.295,465.716C560.035,466.387 559.841,467.046 559.717,467.691ZM405.523,458.999C405.287,459.117 405.066,459.259 404.857,459.426C404.652,459.589 404.506,459.749 404.425,459.904C404.613,459.943 404.749,460.025 404.83,460.146C404.915,460.266 404.954,460.396 404.954,460.533C404.954,460.714 404.891,460.868 404.761,460.989C404.631,461.11 404.479,461.171 404.31,461.171C404.126,461.171 403.974,461.104 403.853,460.974C403.733,460.844 403.672,460.696 403.672,460.523C403.672,460.339 403.72,460.158 403.817,459.973C403.914,459.792 404.044,459.619 404.201,459.459C404.361,459.302 404.543,459.156 404.742,459.029C404.942,458.903 405.148,458.8 405.354,458.716L405.523,458.999ZM418.284,474.655C418.266,474.667 418.187,474.706 418.045,474.779C417.903,474.848 417.719,474.927 417.486,475.009C417.256,475.091 416.993,475.166 416.7,475.236C416.403,475.302 416.095,475.336 415.777,475.336C415.257,475.336 414.791,475.245 414.377,475.06C413.963,474.879 413.615,474.622 413.328,474.286C413.04,473.954 412.82,473.551 412.668,473.083C412.514,472.611 412.436,472.09 412.436,471.519C412.436,470.969 412.505,470.364 412.641,469.705C412.777,469.048 412.952,468.371 413.173,467.672C413.391,466.977 413.636,466.279 413.912,465.583C414.186,464.884 414.465,464.222 414.746,463.593C415.024,462.964 415.293,462.389 415.547,461.866C415.801,461.343 416.019,460.908 416.203,460.559C415.871,460.938 415.493,461.374 415.069,461.866C414.643,462.359 414.189,462.901 413.709,463.487C413.228,464.074 412.726,464.699 412.206,465.365C411.686,466.03 411.163,466.72 410.633,467.437C410.104,468.156 409.581,468.891 409.061,469.644C408.541,470.397 408.045,471.156 407.573,471.915L407.146,471.776C407.237,470.811 407.382,469.856 407.585,468.909C407.79,467.96 408.02,467.05 408.277,466.173C408.535,465.296 408.806,464.47 409.091,463.699C409.378,462.928 409.653,462.238 409.91,461.63C409.517,462.175 409.121,462.765 408.728,463.399C408.335,464.032 407.939,464.685 407.536,465.356C407.137,466.027 406.723,466.699 406.297,467.376C405.873,468.053 405.429,468.701 404.969,469.324C404.506,469.95 404.022,470.53 403.511,471.072C403,471.61 402.456,472.082 401.882,472.481C401.304,472.877 400.69,473.191 400.037,473.424C399.387,473.654 398.688,473.769 397.941,473.769C397.37,473.769 396.849,473.681 396.383,473.512C395.918,473.339 395.516,473.107 395.183,472.807C394.85,472.508 394.593,472.157 394.412,471.758C394.23,471.355 394.143,470.92 394.143,470.455C394.143,470.001 394.215,469.587 394.357,469.218C394.503,468.849 394.696,468.522 394.938,468.235C395.18,467.948 395.464,467.7 395.785,467.491C396.108,467.282 396.444,467.11 396.801,466.974C397.155,466.838 397.511,466.738 397.877,466.671C398.24,466.608 398.585,466.575 398.918,466.575C399.601,466.575 400.258,466.656 400.883,466.816C401.509,466.98 402.111,467.267 402.692,467.681L402.38,468.026C402.375,468.021 402.299,467.966 402.151,467.863C402.003,467.76 401.791,467.645 401.513,467.521C401.234,467.397 400.893,467.285 400.481,467.186C400.07,467.086 399.601,467.034 399.075,467.034C398.57,467.034 398.077,467.104 397.602,467.24C397.124,467.376 396.707,467.579 396.344,467.854C395.982,468.129 395.688,468.474 395.47,468.891C395.253,469.309 395.143,469.796 395.143,470.358C395.143,470.76 395.222,471.132 395.377,471.474C395.534,471.816 395.751,472.112 396.03,472.363C396.305,472.614 396.641,472.81 397.03,472.953C397.421,473.095 397.85,473.168 398.322,473.168C399.033,473.168 399.71,473.016 400.36,472.714C401.01,472.414 401.636,472.006 402.238,471.492C402.843,470.978 403.421,470.379 403.98,469.693C404.54,469.009 405.075,468.284 405.592,467.521C406.109,466.759 406.611,465.979 407.095,465.175C407.579,464.37 408.048,463.596 408.504,462.849C408.958,462.102 409.402,461.4 409.832,460.75C410.265,460.097 410.684,459.534 411.099,459.06L411.498,459.302C411.238,460.091 411.014,460.787 410.824,461.385C410.636,461.987 410.473,462.513 410.334,462.967C410.195,463.424 410.077,463.816 409.977,464.147C409.88,464.479 409.795,464.773 409.726,465.032C409.657,465.292 409.593,465.529 409.535,465.737C409.478,465.946 409.423,466.154 409.366,466.363C409.311,466.568 409.248,466.787 409.175,467.016C409.106,467.246 409.021,467.515 408.918,467.818C408.819,468.123 408.701,468.474 408.565,468.873C408.428,469.272 408.265,469.744 408.068,470.285C408.565,469.535 409.076,468.797 409.596,468.072C410.119,467.346 410.642,466.641 411.163,465.964C411.68,465.283 412.191,464.633 412.69,464.013C413.189,463.394 413.66,462.819 414.108,462.286C414.553,461.754 414.964,461.271 415.338,460.838C415.714,460.402 416.04,460.034 416.318,459.725C416.594,459.42 416.811,459.181 416.969,459.008C417.126,458.836 417.207,458.748 417.214,458.742L417.585,459.017C417.235,459.879 416.89,460.745 416.548,461.609C416.206,462.474 415.877,463.318 415.559,464.137C415.245,464.96 414.948,465.749 414.68,466.511C414.407,467.273 414.171,467.987 413.969,468.652C413.769,469.318 413.612,469.922 413.497,470.467C413.379,471.014 413.322,471.483 413.322,471.873C413.322,472.333 413.376,472.75 413.487,473.122C413.597,473.494 413.754,473.808 413.96,474.068C414.168,474.328 414.422,474.528 414.728,474.667C415.03,474.806 415.375,474.876 415.759,474.876C416.05,474.876 416.331,474.842 416.606,474.779C416.881,474.713 417.123,474.643 417.338,474.565C417.549,474.489 417.722,474.419 417.852,474.353C417.979,474.289 418.048,474.256 418.054,474.256L418.284,474.655ZM422.487,469.666C422.215,469.986 421.949,470.279 421.683,470.548C421.417,470.817 421.151,471.047 420.888,471.238C420.628,471.431 420.365,471.583 420.104,471.691C419.844,471.801 419.582,471.855 419.315,471.855C419.092,471.855 418.889,471.816 418.71,471.734C418.529,471.655 418.372,471.543 418.239,471.398C418.109,471.253 418.006,471.078 417.933,470.866C417.864,470.657 417.827,470.422 417.827,470.161C417.827,469.756 417.918,469.336 418.1,468.903C418.278,468.474 418.505,468.053 418.78,467.645C419.055,467.24 419.361,466.853 419.693,466.487C420.026,466.118 420.343,465.794 420.646,465.51L421.027,465.776C420.816,466.091 420.576,466.445 420.313,466.841C420.05,467.237 419.802,467.645 419.57,468.066C419.336,468.489 419.14,468.913 418.98,469.332C418.819,469.756 418.741,470.146 418.741,470.509C418.741,470.751 418.786,470.957 418.877,471.129C418.971,471.298 419.146,471.386 419.406,471.386C419.69,471.386 420.001,471.274 420.34,471.047C420.679,470.823 421.027,470.53 421.387,470.17C421.744,469.811 422.101,469.406 422.457,468.952C422.814,468.501 423.153,468.044 423.471,467.585C423.791,467.122 424.081,466.683 424.345,466.263C424.607,465.846 424.822,465.486 424.985,465.192L425.633,465.51C425.291,466.185 424.962,466.811 424.647,467.394C424.33,467.975 424.048,468.498 423.803,468.961C423.558,469.426 423.365,469.829 423.219,470.17C423.075,470.515 423.002,470.784 423.002,470.987C423.002,471.069 423.02,471.138 423.056,471.19C423.089,471.244 423.147,471.271 423.222,471.271C423.444,471.277 423.682,471.181 423.945,470.987C424.208,470.79 424.474,470.546 424.744,470.252C425.013,469.956 425.276,469.632 425.533,469.281C425.79,468.931 426.02,468.601 426.228,468.293L426.546,468.54C426.51,468.601 426.437,468.722 426.325,468.903C426.213,469.088 426.074,469.296 425.908,469.532C425.742,469.771 425.554,470.019 425.342,470.276C425.127,470.537 424.904,470.775 424.668,470.99C424.432,471.208 424.187,471.383 423.933,471.522C423.679,471.661 423.428,471.731 423.18,471.731C423.026,471.731 422.89,471.704 422.769,471.652C422.645,471.598 422.545,471.528 422.46,471.437C422.379,471.35 422.315,471.247 422.267,471.129C422.219,471.011 422.198,470.887 422.198,470.757C422.198,470.603 422.221,470.433 422.27,470.252C422.321,470.067 422.394,469.874 422.487,469.666ZM429.609,464.289C429.667,464.189 429.772,464.013 429.924,463.765C430.075,463.517 430.251,463.242 430.456,462.943C430.659,462.64 430.88,462.338 431.118,462.032C431.357,461.73 431.593,461.47 431.823,461.258L432.222,461.497C431.968,461.918 431.708,462.362 431.442,462.831C431.176,463.3 430.913,463.786 430.652,464.289L433.544,464.289L433.365,464.748L430.414,464.748C430.147,465.28 429.9,465.81 429.667,466.336C429.434,466.862 429.228,467.364 429.05,467.842C428.875,468.32 428.735,468.767 428.632,469.184C428.533,469.599 428.484,469.962 428.484,470.268C428.484,470.651 428.572,470.929 428.75,471.096C428.925,471.265 429.144,471.35 429.403,471.35C429.636,471.35 429.873,471.28 430.114,471.141C430.356,471.002 430.592,470.827 430.828,470.614C431.061,470.4 431.282,470.167 431.49,469.913C431.702,469.66 431.886,469.42 432.05,469.197C432.213,468.973 432.346,468.776 432.452,468.607C432.558,468.441 432.625,468.335 432.649,468.293L432.975,468.54C432.769,468.885 432.537,469.248 432.276,469.632C432.017,470.016 431.726,470.37 431.412,470.7C431.094,471.026 430.753,471.298 430.381,471.513C430.008,471.728 429.606,471.837 429.174,471.837C428.907,471.837 428.678,471.789 428.478,471.695C428.281,471.601 428.116,471.471 427.979,471.301C427.843,471.132 427.74,470.933 427.674,470.702C427.604,470.473 427.571,470.222 427.571,469.95C427.571,469.771 427.598,469.52 427.656,469.197C427.71,468.873 427.807,468.486 427.943,468.041C428.079,467.594 428.26,467.095 428.487,466.539C428.714,465.985 429.004,465.386 429.352,464.748L427.88,464.748L428.058,464.289L429.609,464.289ZM440.644,458.706C440.85,458.706 441.025,458.757 441.164,458.857C441.301,458.957 441.37,459.142 441.37,459.408C441.37,459.589 441.333,459.809 441.261,460.064C441.185,460.318 441.086,460.593 440.959,460.889C440.831,461.189 440.683,461.503 440.511,461.83C440.342,462.156 440.154,462.483 439.957,462.81C439.761,463.133 439.553,463.451 439.338,463.756C439.123,464.064 438.909,464.349 438.696,464.606C438.27,465.132 437.901,465.577 437.593,465.936C437.281,466.296 437.015,466.602 436.791,466.853C436.565,467.104 436.377,467.31 436.223,467.464C436.069,467.621 435.936,467.754 435.815,467.869C435.697,467.981 435.588,468.081 435.488,468.174C435.388,468.265 435.285,468.368 435.18,468.48C435.131,468.704 435.11,468.919 435.113,469.121C435.113,469.326 435.116,469.514 435.116,469.683C435.116,470.198 435.198,470.578 435.364,470.827C435.531,471.075 435.763,471.199 436.063,471.199C436.265,471.199 436.468,471.147 436.671,471.044C436.876,470.942 437.076,470.805 437.278,470.642C437.478,470.476 437.675,470.289 437.862,470.08C438.053,469.868 438.231,469.656 438.397,469.442C438.566,469.224 438.718,469.015 438.854,468.816C438.99,468.616 439.108,468.441 439.21,468.293L439.537,468.54C439.519,468.564 439.462,468.658 439.365,468.822C439.268,468.982 439.138,469.178 438.978,469.408C438.82,469.641 438.63,469.886 438.412,470.149C438.195,470.413 437.956,470.654 437.702,470.881C437.448,471.105 437.181,471.289 436.9,471.437C436.622,471.586 436.335,471.661 436.047,471.661C435.805,471.661 435.573,471.613 435.352,471.522C435.128,471.431 434.934,471.286 434.765,471.09C434.599,470.89 434.463,470.639 434.357,470.33C434.254,470.022 434.203,469.654 434.203,469.224C434.203,468.686 434.266,468.123 434.393,467.537C434.52,466.947 434.693,466.357 434.914,465.764C435.131,465.168 435.388,464.585 435.685,464.004C435.978,463.426 436.293,462.876 436.628,462.353C436.961,461.83 437.308,461.346 437.671,460.898C438.034,460.454 438.394,460.067 438.745,459.743C439.096,459.42 439.435,459.166 439.758,458.981C440.085,458.8 440.378,458.706 440.644,458.706ZM435.337,467.691C435.839,467.17 436.326,466.644 436.794,466.109C437.263,465.574 437.705,465.044 438.116,464.525C438.524,464.001 438.902,463.493 439.244,463C439.586,462.507 439.879,462.041 440.121,461.603C440.363,461.167 440.554,460.768 440.689,460.408C440.826,460.049 440.892,459.737 440.892,459.477C440.892,459.432 440.868,459.369 440.822,459.287C440.774,459.208 440.72,459.169 440.653,459.169C440.472,459.169 440.227,459.29 439.927,459.532C439.625,459.773 439.298,460.103 438.948,460.517C438.597,460.935 438.234,461.422 437.859,461.975C437.484,462.532 437.13,463.124 436.801,463.756C436.468,464.388 436.175,465.041 435.914,465.716C435.654,466.387 435.461,467.046 435.337,467.691ZM444.917,469.666C444.645,469.986 444.379,470.279 444.113,470.548C443.847,470.817 443.58,471.047 443.318,471.238C443.057,471.431 442.794,471.583 442.534,471.691C442.274,471.801 442.011,471.855 441.745,471.855C441.521,471.855 441.318,471.816 441.14,471.734C440.958,471.655 440.801,471.543 440.668,471.398C440.538,471.253 440.435,471.078 440.363,470.866C440.293,470.657 440.257,470.422 440.257,470.161C440.257,469.756 440.348,469.336 440.529,468.903C440.707,468.474 440.934,468.053 441.21,467.645C441.485,467.24 441.79,466.853 442.123,466.487C442.455,466.118 442.773,465.794 443.075,465.51L443.456,465.776C443.245,466.091 443.006,466.445 442.743,466.841C442.48,467.237 442.232,467.645 441.999,468.066C441.766,468.489 441.569,468.913 441.409,469.332C441.249,469.756 441.17,470.146 441.17,470.509C441.17,470.751 441.216,470.957 441.306,471.129C441.4,471.298 441.575,471.386 441.836,471.386C442.12,471.386 442.431,471.274 442.77,471.047C443.109,470.823 443.456,470.53 443.816,470.17C444.173,469.811 444.53,469.406 444.887,468.952C445.244,468.501 445.583,468.044 445.9,467.585C446.22,467.122 446.511,466.683 446.774,466.263C447.037,465.846 447.251,465.486 447.415,465.192L448.062,465.51C447.72,466.185 447.391,466.811 447.076,467.394C446.759,467.975 446.478,468.498 446.232,468.961C445.988,469.426 445.794,469.829 445.649,470.17C445.503,470.515 445.431,470.784 445.431,470.987C445.431,471.069 445.449,471.138 445.485,471.19C445.519,471.244 445.576,471.271 445.652,471.271C445.873,471.277 446.111,471.181 446.375,470.987C446.638,470.79 446.904,470.546 447.173,470.252C447.442,469.956 447.705,469.632 447.962,469.281C448.219,468.931 448.449,468.601 448.658,468.293L448.976,468.54C448.939,468.601 448.866,468.722 448.755,468.903C448.643,469.088 448.504,469.296 448.337,469.532C448.171,469.771 447.984,470.019 447.771,470.276C447.557,470.537 447.333,470.775 447.097,470.99C446.861,471.208 446.617,471.383 446.363,471.522C446.108,471.661 445.858,471.731 445.609,471.731C445.455,471.731 445.319,471.704 445.198,471.652C445.074,471.598 444.974,471.528 444.89,471.437C444.808,471.35 444.745,471.247 444.696,471.129C444.648,471.011 444.627,470.887 444.627,470.757C444.627,470.603 444.651,470.433 444.7,470.252C444.751,470.067 444.823,469.874 444.917,469.666ZM456.654,458.706C456.859,458.706 457.035,458.757 457.174,458.857C457.31,458.957 457.379,459.142 457.379,459.408C457.379,459.589 457.343,459.809 457.27,460.064C457.195,460.318 457.095,460.593 456.968,460.889C456.841,461.189 456.693,461.503 456.52,461.83C456.351,462.156 456.164,462.483 455.967,462.81C455.77,463.133 455.562,463.451 455.347,463.756C455.132,464.064 454.918,464.349 454.706,464.606C454.28,465.132 453.911,465.577 453.602,465.936C453.29,466.296 453.025,466.602 452.801,466.853C452.574,467.104 452.386,467.31 452.233,467.464C452.078,467.621 451.945,467.754 451.824,467.869C451.706,467.981 451.597,468.081 451.497,468.174C451.398,468.265 451.295,468.368 451.189,468.48C451.141,468.704 451.119,468.919 451.122,469.121C451.122,469.326 451.125,469.514 451.125,469.683C451.125,470.198 451.207,470.578 451.373,470.827C451.54,471.075 451.772,471.199 452.072,471.199C452.275,471.199 452.477,471.147 452.68,471.044C452.886,470.942 453.085,470.805 453.288,470.642C453.488,470.476 453.684,470.289 453.871,470.08C454.062,469.868 454.24,469.656 454.407,469.442C454.576,469.224 454.727,469.015 454.863,468.816C454.999,468.616 455.117,468.441 455.22,468.293L455.547,468.54C455.529,468.564 455.471,468.658 455.375,468.822C455.277,468.982 455.148,469.178 454.987,469.408C454.83,469.641 454.64,469.886 454.422,470.149C454.204,470.413 453.965,470.654 453.711,470.881C453.457,471.105 453.191,471.289 452.91,471.437C452.632,471.586 452.344,471.661 452.057,471.661C451.815,471.661 451.582,471.613 451.361,471.522C451.138,471.431 450.944,471.286 450.775,471.09C450.608,470.89 450.472,470.639 450.366,470.33C450.264,470.022 450.212,469.654 450.212,469.224C450.212,468.686 450.276,468.123 450.402,467.537C450.53,466.947 450.702,466.357 450.923,465.764C451.141,465.168 451.398,464.585 451.694,464.004C451.987,463.426 452.302,462.876 452.638,462.353C452.97,461.83 453.318,461.346 453.681,460.898C454.044,460.454 454.404,460.067 454.754,459.743C455.105,459.42 455.444,459.166 455.767,458.981C456.094,458.8 456.388,458.706 456.654,458.706ZM451.347,467.691C451.848,467.17 452.335,466.644 452.804,466.109C453.273,465.574 453.714,465.044 454.126,464.525C454.533,464.001 454.912,463.493 455.253,463C455.595,462.507 455.888,462.041 456.131,461.603C456.373,461.167 456.563,460.768 456.699,460.408C456.835,460.049 456.901,459.737 456.901,459.477C456.901,459.432 456.877,459.369 456.832,459.287C456.783,459.208 456.729,459.169 456.663,459.169C456.481,459.169 456.236,459.29 455.937,459.532C455.634,459.773 455.308,460.103 454.958,460.517C454.606,460.935 454.244,461.422 453.868,461.975C453.493,462.532 453.139,463.124 452.81,463.756C452.477,464.388 452.184,465.041 451.924,465.716C451.664,466.387 451.47,467.046 451.347,467.691ZM460.926,469.666C460.655,469.986 460.388,470.279 460.122,470.548C459.856,470.817 459.59,471.047 459.327,471.238C459.067,471.431 458.803,471.583 458.544,471.691C458.283,471.801 458.02,471.855 457.755,471.855C457.53,471.855 457.328,471.816 457.15,471.734C456.968,471.655 456.811,471.543 456.677,471.398C456.548,471.253 456.445,471.078 456.372,470.866C456.303,470.657 456.267,470.422 456.267,470.161C456.267,469.756 456.357,469.336 456.539,468.903C456.717,468.474 456.943,468.053 457.219,467.645C457.494,467.24 457.799,466.853 458.132,466.487C458.465,466.118 458.782,465.794 459.085,465.51L459.466,465.776C459.254,466.091 459.015,466.445 458.752,466.841C458.489,467.237 458.241,467.645 458.008,468.066C457.775,468.489 457.579,468.913 457.418,469.332C457.258,469.756 457.18,470.146 457.18,470.509C457.18,470.751 457.225,470.957 457.316,471.129C457.409,471.298 457.585,471.386 457.845,471.386C458.129,471.386 458.441,471.274 458.78,471.047C459.118,470.823 459.466,470.53 459.826,470.17C460.182,469.811 460.539,469.406 460.896,468.952C461.253,468.501 461.592,468.044 461.909,467.585C462.23,467.122 462.52,466.683 462.783,466.263C463.046,465.846 463.261,465.486 463.425,465.192L464.072,465.51C463.73,466.185 463.4,466.811 463.086,467.394C462.768,467.975 462.487,468.498 462.242,468.961C461.997,469.426 461.803,469.829 461.658,470.17C461.513,470.515 461.441,470.784 461.441,470.987C461.441,471.069 461.459,471.138 461.495,471.19C461.528,471.244 461.586,471.271 461.661,471.271C461.882,471.277 462.121,471.181 462.384,470.987C462.647,470.79 462.913,470.546 463.183,470.252C463.451,469.956 463.715,469.632 463.972,469.281C464.229,468.931 464.459,468.601 464.668,468.293L464.985,468.54C464.948,468.601 464.876,468.722 464.764,468.903C464.652,469.088 464.513,469.296 464.347,469.532C464.18,469.771 463.993,470.019 463.781,470.276C463.567,470.537 463.343,470.775 463.107,470.99C462.871,471.208 462.626,471.383 462.372,471.522C462.118,471.661 461.867,471.731 461.619,471.731C461.465,471.731 461.329,471.704 461.208,471.652C461.083,471.598 460.984,471.528 460.9,471.437C460.817,471.35 460.754,471.247 460.706,471.129C460.657,471.011 460.636,470.887 460.636,470.757C460.636,470.603 460.661,470.433 460.709,470.252C460.76,470.067 460.833,469.874 460.926,469.666ZM469.624,471.295C469.318,471.504 469.001,471.67 468.671,471.798C468.345,471.925 468.03,471.988 467.728,471.988C467.504,471.988 467.28,471.954 467.056,471.891C466.83,471.825 466.627,471.719 466.442,471.568C466.261,471.416 466.113,471.217 465.998,470.969C465.88,470.721 465.822,470.413 465.822,470.046C465.822,469.605 465.904,469.178 466.065,468.77C466.221,468.365 466.436,467.984 466.7,467.633C466.966,467.282 467.271,466.962 467.613,466.671C467.955,466.381 468.308,466.136 468.671,465.931C469.034,465.728 469.397,465.571 469.757,465.459C470.117,465.347 470.446,465.289 470.739,465.289C471.03,465.289 471.278,465.32 471.48,465.383C471.683,465.444 471.856,465.523 471.998,465.613C472.14,465.704 472.252,465.804 472.336,465.909C472.418,466.016 472.487,466.115 472.539,466.212L473.017,465.583L473.31,465.776C473.31,465.782 473.262,465.876 473.168,466.055C473.074,466.236 472.95,466.478 472.796,466.777C472.642,467.08 472.463,467.434 472.261,467.836C472.055,468.241 471.844,468.67 471.622,469.127C471.402,469.581 471.175,470.049 470.948,470.533C470.721,471.02 470.504,471.495 470.298,471.961C470.836,471.655 471.308,471.359 471.717,471.075C472.122,470.79 472.487,470.506 472.808,470.216C473.132,469.925 473.422,469.626 473.682,469.312C473.942,469 474.193,468.658 474.435,468.293L474.762,468.54C474.526,468.925 474.272,469.281 473.996,469.608C473.721,469.938 473.401,470.261 473.032,470.585C472.663,470.905 472.23,471.235 471.737,471.577C471.245,471.915 470.658,472.29 469.978,472.695C469.418,474.071 468.877,475.211 468.357,476.113C467.836,477.011 467.347,477.725 466.881,478.25C466.418,478.777 465.989,479.146 465.59,479.358C465.191,479.572 464.831,479.678 464.513,479.678C464.383,479.678 464.241,479.66 464.093,479.63C463.941,479.596 463.799,479.533 463.669,479.439C463.542,479.343 463.433,479.216 463.349,479.049C463.261,478.883 463.219,478.671 463.219,478.411C463.219,477.915 463.352,477.425 463.612,476.941C463.875,476.454 464.256,475.974 464.755,475.495C465.254,475.018 465.868,474.544 466.59,474.068C467.313,473.597 468.133,473.122 469.049,472.644C469.161,472.39 469.264,472.148 469.358,471.922C469.455,471.695 469.542,471.486 469.624,471.295ZM470.087,470.322C470.244,470.019 470.404,469.723 470.558,469.432C470.715,469.139 470.879,468.846 471.045,468.555C471.214,468.262 471.396,467.963 471.586,467.655C471.78,467.349 471.992,467.028 472.23,466.699C472.218,466.611 472.188,466.517 472.14,466.423C472.095,466.33 472.028,466.242 471.946,466.164C471.861,466.082 471.756,466.016 471.626,465.964C471.496,465.909 471.345,465.882 471.166,465.882C470.967,465.882 470.737,465.909 470.479,465.964C470.223,466.016 469.953,466.109 469.669,466.239C469.385,466.366 469.097,466.541 468.804,466.759C468.514,466.98 468.226,467.252 467.951,467.585C467.543,468.069 467.228,468.552 467.011,469.033C466.793,469.514 466.684,469.953 466.684,470.349C466.684,470.733 466.781,471.023 466.975,471.22C467.171,471.42 467.437,471.519 467.773,471.519C468.127,471.519 468.505,471.41 468.901,471.19C469.3,470.972 469.696,470.681 470.087,470.322ZM464.513,479.225C464.737,479.225 464.97,479.143 465.211,478.977C465.454,478.813 465.698,478.587 465.946,478.299C466.194,478.015 466.439,477.682 466.684,477.305C466.926,476.926 467.165,476.521 467.401,476.094C467.637,475.665 467.863,475.227 468.078,474.779C468.293,474.328 468.499,473.89 468.695,473.458C467.815,473.92 467.062,474.398 466.439,474.897C465.816,475.396 465.305,475.874 464.912,476.327C464.516,476.784 464.229,477.195 464.047,477.561C463.866,477.927 463.778,478.208 463.778,478.402C463.778,478.644 463.829,478.84 463.935,478.995C464.041,479.149 464.235,479.225 464.513,479.225ZM473.389,462.214C473.322,462.462 473.217,462.698 473.068,462.916C472.92,463.133 472.745,463.324 472.542,463.487C472.336,463.65 472.115,463.777 471.877,463.871C471.638,463.968 471.393,464.013 471.145,464.013C470.897,464.013 470.676,463.968 470.476,463.871C470.28,463.777 470.117,463.65 469.989,463.487C469.863,463.324 469.775,463.133 469.73,462.916C469.681,462.698 469.684,462.462 469.739,462.214L470.162,462.214C470.15,462.422 470.18,462.601 470.25,462.755C470.316,462.892 470.425,463.015 470.579,463.127C470.734,463.239 470.969,463.296 471.287,463.296C471.602,463.296 471.861,463.239 472.07,463.127C472.282,463.015 472.454,462.892 472.59,462.755C472.745,462.601 472.869,462.422 472.962,462.214L473.389,462.214Z" style="fill:rgb(27,66,126);"/>
    </g>
    <g transform="matrix(0.612978,0,0,0.612978,-136.277,-71.1685)">
        <path d="M232.105,213.769C229.45,207.599 227.978,200.8 227.978,193.657C227.978,179.597 233.677,166.868 242.891,157.654C249.981,150.564 259.153,145.556 269.41,143.624L265.567,150.85C258.549,153.033 252.27,156.894 247.2,161.964C239.089,170.074 234.072,181.28 234.072,193.657C234.072,198.134 234.729,202.458 235.951,206.537L232.105,213.769ZM288.378,143.624C298.636,145.556 307.807,150.564 314.897,157.654C324.111,166.868 329.811,179.598 329.811,193.657C329.811,200.8 328.339,207.599 325.684,213.768L321.837,206.537C323.059,202.458 323.716,198.134 323.716,193.657C323.716,181.28 318.699,170.074 310.588,161.964C305.519,156.894 299.24,153.033 292.222,150.85L288.378,143.624ZM312.648,231.777C303.663,239.739 291.843,244.574 278.895,244.574C265.945,244.574 254.125,239.739 245.14,231.777L252.016,229.529C259.505,235.149 268.811,238.479 278.895,238.479C288.978,238.479 298.284,235.149 305.772,229.529L312.648,231.777Z" style="fill:rgb(112,111,110);"/>
    </g>
    <g transform="matrix(0.612978,0,0,0.612978,-136.277,-83.4415)">
        <path d="M278.894,180.412L251.034,232.797L278.894,223.688L306.755,232.797L278.894,180.412ZM278.894,154.465L331.699,253.753L278.894,236.488L226.09,253.753L278.894,154.465Z" style="fill:rgb(27,66,126);"/>
    </g>
</svg>
